<svg id="Layer_35" enable-background="new 0 0 64 64" height="512" viewBox="0 0 64 64" width="512" xmlns="http://www.w3.org/2000/svg"><path d="m8 26h15v-3-2-8h14.944c.033-.329.056-.662.056-1 0-5.523-4.477-10-10-10-3.847 0-7.186 2.172-8.859 5.357l.003.004c-1.16-.854-2.593-1.361-4.144-1.361-3.866 0-7 3.134-7 7 0 .342.033.675.08 1.004-.027 0-.053-.004-.08-.004-3.314 0-6 2.686-6 6s2.686 6 6 6z"/><circle cx="51" cy="30" r="3"/><path d="m3 39h36v-6h-36zm10-4h2v2h-2zm-4 0h2v2h-2zm-4 0h2v2h-2z"/><path d="m3 61h36v-20h-36zm26-4h-2v-2h2zm4 0h-2v-2h2zm4 0h-2v-2h2zm-14-14h14v2h-14zm0 4h14v2h-14zm0 4h14v2h-14zm-18 7c0-2.953 1.841-5.479 4.433-6.506-.884-.902-1.433-2.134-1.433-3.494 0-2.757 2.243-5 5-5s5 2.243 5 5c0 1.36-.549 2.592-1.433 3.494 2.592 1.027 4.433 3.553 4.433 6.506v1h-16z"/><path d="m52 35h-2c-2.415 0-4.435 1.721-4.899 4h11.799c-.465-2.279-2.485-4-4.9-4z"/><path d="m14 53h-2c-2.415 0-4.435 1.721-4.899 4h11.799c-.465-2.279-2.485-4-4.9-4z"/><circle cx="13" cy="48" r="3"/><path d="m25 15v6h36v-6zm4 4h-2v-2h2zm4 0h-2v-2h2zm4 0h-2v-2h2z"/><path d="m25 31h16v12h20v-20h-36zm21-1c0-2.757 2.243-5 5-5s5 2.243 5 5c0 1.36-.549 2.592-1.433 3.494 2.592 1.027 4.433 3.553 4.433 6.506v1h-16v-1c0-2.953 1.841-5.479 4.433-6.506-.884-.902-1.433-2.134-1.433-3.494zm-19-5h16v2h-16z"/></svg>