<?xml version="1.0"?>
<svg xmlns="http://www.w3.org/2000/svg" xmlns:xlink="http://www.w3.org/1999/xlink" xmlns:svgjs="http://svgjs.com/svgjs" version="1.1" width="512" height="512" x="0" y="0" viewBox="0 0 511.947 511.947" style="enable-background:new 0 0 512 512" xml:space="preserve" class=""><g><g xmlns="http://www.w3.org/2000/svg"><g><path d="m410.927 454.891-19.668 27.17 15.582 29.886 26.601-13.869z" fill="#fe4a55" data-original="#e8d9cd" style="" class=""/><path d="m101.065 454.891-22.515 43.187 26.602 13.868 15.581-29.885z" fill="#221638" data-original="#f2eedf" style="" class=""/></g><path d="m90.332 269.06-23.538 18.6c13.659 17.284 29.607 32.623 47.402 45.589l17.667-24.246c-15.591-11.36-29.564-24.799-41.531-39.943z" fill="#221638" data-original="#1e90ff" style="" class=""/><path d="m255.973 0 10 68.85h-25v-68.85z" fill="#fe4a55" data-original="#e8d9cd" style="" class=""/><path d="m255.973 0h15v68.85h-15z" fill="#221638" data-original="#d6bfb0" style="" class=""/><path d="m436.394 373.95-113.764-218.218-77.382 46.255 146.011 280.073 13.302-6.935c36.67-19.117 50.95-64.504 31.833-101.175z" fill="#221638" data-original="#02afaa" style="" class=""/><path d="m181.113 335.69-10.64 28.04c27.29 10.36 56.06 15.62 85.5 15.62l10-15.611-10-14.389c-25.79 0-50.98-4.6-74.86-13.66z" fill="#221638" data-original="#1e90ff" style="" class=""/><path d="m189.363 155.732-113.765 218.218c-9.261 17.764-11.05 38.071-5.038 57.181s19.107 34.734 36.871 43.995l13.301 6.935 146.012-280.073z" fill="#fe4a55" data-original="#57d3ad" style="" class=""/><circle cx="255.973" cy="138.36" fill="#221638" r="84.12" data-original="#f2eedf" style="" class=""/><path d="m255.973 222.48v-168.24c46.39 0 84.12 37.73 84.12 84.12 0 46.38-37.73 84.12-84.12 84.12z" fill="#fe4a55" data-original="#e8d9cd" style="" class=""/><path d="m240.973 123.36h30v30h-30z" fill="#fe4a55" data-original="#e8d9cd" style="" class=""/><path d="m255.973 123.36h15v30h-15z" fill="#221638" data-original="#d6bfb0" style="" class=""/><path d="m445.153 287.66c-46.05 58.27-115 91.69-189.18 91.69v-30c64.95 0 125.32-29.27 165.64-80.29z" fill="#fe4a55" data-original="#005fe3" style="" class=""/></g></g></svg>
