<?xml version="1.0"?>
<svg xmlns="http://www.w3.org/2000/svg" xmlns:xlink="http://www.w3.org/1999/xlink" xmlns:svgjs="http://svgjs.com/svgjs" version="1.1" width="512" height="512" x="0" y="0" viewBox="0 0 511.999 511.999" style="enable-background:new 0 0 512 512" xml:space="preserve" class=""><g>
<g xmlns="http://www.w3.org/2000/svg">
	<g>
		<path d="M267.163,245.865c2.612-1.016,4.679-3.082,5.695-5.695l10.133-26.054h192.016c5.522,0,10-4.477,10-10    s-4.477-9.999-10-9.999c-18.749,0-34.001-15.253-34.001-34.001s15.253-34.001,34.001-34.001c5.522,0,10-4.477,10-10    s-4.478-10-10-10H284.403l-30.505-30.504l14.117-46.726l43.211,43.212c3.906,3.904,10.236,3.904,14.143,0    c3.905-3.905,3.905-10.237,0-14.143L270.346,2.927c-2.698-2.697-6.55-3.529-9.963-2.501L86.602,52.928    c-3.205,0.968-5.713,3.476-6.681,6.681L27.419,233.388c-1.066,3.528-0.105,7.357,2.501,9.963c1.903,1.903,4.458,2.929,7.072,2.929    c0.966,0,1.939-0.14,2.891-0.427l62.718-18.949l55.117,55.117c1.911,1.911,4.468,2.929,7.073,2.929    c1.218,0,2.446-0.223,3.623-0.68l0.125-0.049v173.775c0,29.776,24.226,54.002,54.002,54.002h252.465c5.522,0,10-4.478,10-10    V284.491c0-5.522-4.478-10-10-10s-10,4.478-10,10v207.507H222.542c-18.749,0-34.001-15.253-34.001-34.001V276.444L267.163,245.865    z M296.485,179.424c0.007-0.019,0.014-0.037,0.021-0.056l14.758-37.946c1.438-3.696,0.555-7.892-2.249-10.696l-4.612-4.612    h128.679c-7.549,9.289-12.077,21.127-12.077,34.001s4.53,24.712,12.078,34.001H290.771L296.485,179.424z M51.961,221.312    L97.517,70.524l130.523-39.432l-63.763,63.763c-3.905,3.905-3.905,10.237,0,14.143c1.953,1.953,4.512,2.929,7.071,2.929    s5.118-0.976,7.071-2.929l63.763-63.764l-39.433,130.523L51.961,221.312z M167.247,263.265l-42.922-42.923l89.338-26.991    c3.205-0.968,5.713-3.476,6.681-6.681l26.992-89.34l42.922,42.922l-6.798,17.48l-10.244-10.244    c-3.906-3.905-10.236-3.905-14.143,0c-3.905,3.905-3.905,10.237,0,14.144l16.467,16.467l-19.728,50.721L167.247,263.265z" fill="#ffffff" data-original="#000000" style="" class=""/>
	</g>
</g>
<g xmlns="http://www.w3.org/2000/svg">
	<g>
		<path d="M482.076,238.588c-1.859-1.86-4.439-2.93-7.069-2.93c-2.63,0-5.21,1.07-7.07,2.93c-1.86,1.86-2.93,4.44-2.93,7.07    c0,2.63,1.069,5.21,2.93,7.07c1.86,1.86,4.44,2.93,7.07,2.93c2.63,0,5.21-1.07,7.069-2.93c1.86-1.86,2.931-4.44,2.931-7.07    C485.007,243.029,483.937,240.448,482.076,238.588z" fill="#ffffff" data-original="#000000" style="" class=""/>
	</g>
</g>
<g xmlns="http://www.w3.org/2000/svg">
	<g>
		<path d="M360.404,277.056h-67.259c-23.365,0-42.374,19.009-42.374,42.372v67.259c0,23.365,19.009,42.373,42.374,42.373h67.259    c23.364,0,42.372-19.009,42.372-42.373v-67.259C402.777,296.064,383.768,277.056,360.404,277.056z M382.776,386.688    c0,12.336-10.035,22.373-22.372,22.373h-67.259c-12.336,0-22.373-10.036-22.373-22.373v-67.259    c0-12.336,10.036-22.372,22.373-22.372h67.259c12.336,0,22.372,10.035,22.372,22.372V386.688z" fill="#ffffff" data-original="#000000" style="" class=""/>
	</g>
</g>
<g xmlns="http://www.w3.org/2000/svg">
	<g>
		<path d="M351.85,340.836l-25.337-16.24c-5.112-3.275-11.598-3.503-16.927-0.59c-5.328,2.914-8.638,8.495-8.638,14.568v32.481    c0,6.072,3.31,11.653,8.638,14.568c2.488,1.36,5.229,2.036,7.965,2.036c3.122,0,6.236-0.88,8.961-2.626l25.337-16.24    c4.786-3.068,7.644-8.294,7.644-13.979C359.494,349.128,356.636,343.905,351.85,340.836z M320.95,364.844v-20.058l15.647,10.028    L320.95,364.844z" fill="#ffffff" data-original="#000000" style="" class=""/>
	</g>
</g>
<g xmlns="http://www.w3.org/2000/svg">
	<g>
		<path d="M157.206,116.074c-1.86-1.87-4.44-2.93-7.07-2.93c-2.64,0-5.21,1.06-7.07,2.93c-1.869,1.85-2.93,4.43-2.93,7.06    c0,2.64,1.061,5.22,2.93,7.08c1.851,1.86,4.431,2.92,7.07,2.92c2.63,0,5.21-1.06,7.07-2.92c1.859-1.86,2.93-4.44,2.93-7.08    C160.136,120.504,159.066,117.934,157.206,116.074z" fill="#ffffff" data-original="#000000" style="" class=""/>
	</g>
</g>
<g xmlns="http://www.w3.org/2000/svg">
</g>
<g xmlns="http://www.w3.org/2000/svg">
</g>
<g xmlns="http://www.w3.org/2000/svg">
</g>
<g xmlns="http://www.w3.org/2000/svg">
</g>
<g xmlns="http://www.w3.org/2000/svg">
</g>
<g xmlns="http://www.w3.org/2000/svg">
</g>
<g xmlns="http://www.w3.org/2000/svg">
</g>
<g xmlns="http://www.w3.org/2000/svg">
</g>
<g xmlns="http://www.w3.org/2000/svg">
</g>
<g xmlns="http://www.w3.org/2000/svg">
</g>
<g xmlns="http://www.w3.org/2000/svg">
</g>
<g xmlns="http://www.w3.org/2000/svg">
</g>
<g xmlns="http://www.w3.org/2000/svg">
</g>
<g xmlns="http://www.w3.org/2000/svg">
</g>
<g xmlns="http://www.w3.org/2000/svg">
</g>
</g></svg>
