<?xml version="1.0"?>
<svg xmlns="http://www.w3.org/2000/svg" xmlns:xlink="http://www.w3.org/1999/xlink" xmlns:svgjs="http://svgjs.com/svgjs" version="1.1" width="512" height="512" x="0" y="0" viewBox="0 0 512.03166 512" style="enable-background:new 0 0 512 512" xml:space="preserve" class=""><g><path xmlns="http://www.w3.org/2000/svg" d="m379.398438 491.015625-7-126.601563c-.597657-10-7.597657-18.398437-17.199219-20.796874l-44.800781-11.203126-27-13.398437-12.398438 25.601563c-1 2-2.800781 3.199218-5 3.199218h-19.398438c-2.203124 0-4.203124-1.199218-5-3.199218l-11.402343-25.402344-27 13.402344-45.199219 11c-9.601562 2.398437-16.601562 10.796874-17.199219 20.796874l-7 126.601563c-.402343 8.398437 6 15.398437 14.199219 16h.800781 215.398438c8.402343 0 15.199219-6.800781 15.199219-15.199219 0-.199218 0-.402344 0-.800781zm0 0" fill="#fe4a55" data-original="#60bae2" style="" class=""/><path xmlns="http://www.w3.org/2000/svg" d="m310.199219 332.214844-13.398438 32.800781c-1 2.601563-4 3.800781-6.402343 2.800781-.796876-.402344-1.398438-.800781-2-1.402344l-17.597657-21.796874 12.398438-25.601563zm0 0" fill="#e9e9ea" data-original="#e9e9ea" style="" class=""/><path xmlns="http://www.w3.org/2000/svg" d="m216.199219 365.214844c1 2.601562 4 3.800781 6.402343 2.800781.796876-.398437 1.398438-.800781 2-1.398437l17-21.203126c-.203124-.199218-.402343-.597656-.402343-.796874l-11.398438-25.402344-18 8.800781-9 4.398437zm0 0" fill="#e9e9ea" data-original="#e9e9ea" style="" class=""/><path xmlns="http://www.w3.org/2000/svg" d="m395.199219 327.015625 27.800781 7c-.601562-.199219-1-.800781-1-1.199219l-5.601562-16-16.398438 8.199219-6 1.398437zm0 0" fill="#e9e9ea" data-original="#e9e9ea" style="" class=""/><path xmlns="http://www.w3.org/2000/svg" d="m507 416.617188-4-72.203126c-.398438-6-4.601562-11.199218-10.398438-12.796874l-27.402343-6.800782-16.398438-8.199218-5.601562 16c-.398438 1-1.199219 1.597656-2.199219 1.597656h-17l4 1c7 1.800781 12.199219 8 12.601562 15.199218l4.597657 80.800782h48c7.601562 0 13.800781-6.199219 13.800781-13.800782 0-.199218 0-.597656 0-.796874zm0 0" fill="#e9e9ea" data-original="#e9e9ea" style="" class=""/><path xmlns="http://www.w3.org/2000/svg" d="m72.398438 350.414062c.402343-7.199218 5.601562-13.398437 12.601562-15.199218l32.800781-8.199219 1-.398437-6.601562-1.601563-16.398438-8.199219-5.601562 16c-.398438 1-1.199219 1.597656-2.199219 1.597656h-17c-1 0-1.800781-.597656-2.199219-1.597656l-5.601562-16-16.398438 8.199219-27.402343 6.800781c-5.796876 1.398438-10.199219 6.597656-10.398438 12.800782l-4 72.199218c-.398438 7.597656 5.398438 14.199219 13 14.597656h.800781 49.199219zm0 0" fill="#e9e9ea" data-original="#e9e9ea" style="" class=""/><path xmlns="http://www.w3.org/2000/svg" d="m445.398438 437.015625-4.796876-86.601563c-.402343-7.199218-5.402343-13.398437-12.601562-15.199218l-32.800781-8.199219-19.800781-9.800781-6.597657 19.199218c-.402343 1.203126-1.402343 1.800782-2.601562 1.800782h-20.398438c-1.199219 0-2.199219-.800782-2.601562-1.800782l-6.597657-19.199218-19.800781 9.800781-11.402343 2.800781 4.800781 2.398438 44.800781 11.199218c9.601562 2.402344 16.601562 10.800782 17.199219 20.800782l5 90.199218h51.402343c9.199219 0 16.597657-7.398437 16.597657-16.597656.199219-.199218.199219-.402344.199219-.800781zm0 0" fill="#e9e9ea" data-original="#e9e9ea" style="" class=""/><path xmlns="http://www.w3.org/2000/svg" d="m140.800781 364.414062c.597657-10 7.597657-18.398437 17.199219-20.796874l44.800781-11.203126 4.800781-2.398437-11.601562-3-19.800781-9.800781-6.597657 19.199218c-.402343 1.203126-1.402343 1.800782-2.601562 1.800782h-20.199219c-1.199219 0-2.199219-.800782-2.601562-1.800782l-6.597657-19.199218-19.800781 9.800781-32.800781 8.199219c-7 1.800781-12.199219 8-12.601562 15.199218l-4.796876 86.601563c-.601562 9.199219 6.597657 17 15.796876 17.601563h1 51.601562zm0 0" fill="#e9e9ea" data-original="#e9e9ea" style="" class=""/><path xmlns="http://www.w3.org/2000/svg" d="m400.199219 231.617188c-1 0-1.800781 0-2.800781.199218 0 1 .203124 1.800782.203124 2.800782v29.199218c0 1 0 1.800782-.203124 2.800782 9.601562 1.597656 18.601562-5 20.203124-14.601563 1.597657-9.601563-5-18.601563-14.601562-20.199219-.800781 0-1.800781-.199218-2.800781-.199218zm0 0" fill="#f9d0b4" data-original="#f9d0b4" style="" class=""/><path xmlns="http://www.w3.org/2000/svg" d="m355.398438 306.015625c-6.597657 0-13-1.601563-18.796876-4.398437v15.597656l6.597657 19.199218c.402343 1.203126 1.402343 1.800782 2.601562 1.800782h20.398438c1.199219 0 2.199219-.800782 2.601562-1.800782l6.597657-19.199218v-16.199219c-6.199219 3.398437-13 5-20 5zm0 0" fill="#f9d0b4" data-original="#f9d0b4" style="" class=""/><path xmlns="http://www.w3.org/2000/svg" d="m397.601562 225.617188c0-1.203126-1-2.203126-2.203124-2.203126-17.597657-.597656-26.796876-7.398437-30.398438-11-.800781-.796874-2.398438-.796874-3.199219 0 0 0-.199219.203126-.199219.203126-5.203124 6.597656-12.203124 11.597656-20.402343 14-.398438 13.199218-11.199219 23.796874-24.597657 23.398437-1.203124 0-2.402343-.199219-3.402343-.398437 0 1-.199219 1.796874-.199219 2.796874v11.203126c0 23.199218 19 42.199218 42.199219 42.199218s42.199219-19 42.199219-42.199218v-37.601563c.203124 0 .203124-.199219.203124-.398437zm0 0" fill="#f9d0b4" data-original="#f9d0b4" style="" class=""/><path xmlns="http://www.w3.org/2000/svg" d="m469.398438 245.414062c-.796876 0-1.597657 0-2.398438.203126v2.398437 24.199219 2.402344c8 1.199218 15.601562-4.203126 16.800781-12.203126s-4.199219-15.597656-12.199219-16.796874c-.601562-.203126-1.402343-.203126-2.203124-.203126zm0 0" fill="#f9d0b4" data-original="#f9d0b4" style="" class=""/><path xmlns="http://www.w3.org/2000/svg" d="m432 307.414062c-5.398438 0-10.800781-1.199218-15.800781-3.796874v13l5.601562 16c.398438 1 1.199219 1.597656 2.199219 1.597656h17c1 0 1.800781-.597656 2.199219-1.597656l5.601562-16v-13.601563c-5.199219 3-11 4.398437-16.800781 4.398437zm0 0" fill="#f9d0b4" data-original="#f9d0b4" style="" class=""/><path xmlns="http://www.w3.org/2000/svg" d="m467.199219 240.214844c0-1-.800781-1.800782-1.800781-1.800782-14.597657-.398437-22.398438-6.199218-25.199219-9.199218-.800781-.800782-2-.800782-2.597657 0 0 0 0 .199218-.203124.199218-5.199219 6.601563-12.597657 11.203126-20.796876 12.601563 4 8.800781 0 19.199219-8.800781 23.199219-3.199219 1.402344-6.601562 1.800781-10 1.199218-.199219 1.800782-.402343 3.601563-.800781 5.402344 0 19.398438 15.800781 35.199219 35.199219 35.199219 19.402343 0 35.199219-15.800781 35.199219-35.199219v-31.402344c-.199219.203126-.199219 0-.199219-.199218zm0 0" fill="#f9d0b4" data-original="#f9d0b4" style="" class=""/><path xmlns="http://www.w3.org/2000/svg" d="m114.199219 263.816406v-29.199218c0-1 0-2 .199219-2.800782-9.597657-1.601562-18.796876 4.800782-20.398438 14.398438-1.601562 9.601562 4.800781 18.800781 14.398438 20.402344 2 .398437 3.800781.398437 5.800781 0 0-.800782 0-1.800782 0-2.800782zm0 0" fill="#f9d0b4" data-original="#f9d0b4" style="" class=""/><path xmlns="http://www.w3.org/2000/svg" d="m198.601562 263.816406v-9c-.203124-1.601562-.402343-3.402344-.601562-5-13.199219 2.199219-25.601562-6.800781-27.601562-20-.796876-4.402344-.199219-9 1.402343-13-2-1.199218-4-2.800781-5.800781-4.402344-.800781-.796874-2.398438-.796874-3.199219 0 0 0-.199219.203126-.199219.203126-15.402343 19.398437-38.203124 16.597656-45.800781 15-1.199219-.203126-2.402343.597656-2.601562 1.796874v.402344 34c0 23.398438 19 42.199219 42.199219 42.199219 23.203124 0 42.203124-18.800781 42.203124-42.199219zm0 0" fill="#f9d0b4" data-original="#f9d0b4" style="" class=""/><path xmlns="http://www.w3.org/2000/svg" d="m156.398438 306.015625c-6.597657 0-13-1.601563-18.796876-4.398437v15.597656l6.597657 19.199218c.402343 1.203126 1.402343 1.800782 2.601562 1.800782h20.398438c1.199219 0 2.199219-.800782 2.601562-1.800782l6.597657-19.199218v-16.199219c-6.199219 3.398437-13 5-20 5zm0 0" fill="#f9d0b4" data-original="#f9d0b4" style="" class=""/><path xmlns="http://www.w3.org/2000/svg" d="m43.800781 272.214844v-24.199219c0-.800781 0-1.601563 0-2.398437-8-1.402344-15.601562 4-17 12-1.402343 8 4 15.597656 12 17 1.597657.199218 3.199219.199218 5 0 0-.800782 0-1.601563 0-2.402344zm0 0" fill="#f9d0b4" data-original="#f9d0b4" style="" class=""/><path xmlns="http://www.w3.org/2000/svg" d="m111.398438 266.816406c-9.796876 0-17.597657-7.800781-17.597657-17.601562 0-5 2-9.597656 5.597657-13-4.597657-1.398438-8.796876-3.800782-12.398438-7-.800781-.800782-2-.800782-2.601562 0 0 0 0 .199218-.199219.199218-12.800781 16.203126-31.800781 13.800782-38.199219 12.601563-1-.199219-2 .398437-2.199219 1.398437v.402344 28.398438c0 19.402344 15.800781 35.199218 35.199219 35.199218s35.199219-15.796874 35.199219-35.199218v-5.597656c-.800781.199218-1.800781.199218-2.800781.199218zm0 0" fill="#f9d0b4" data-original="#f9d0b4" style="" class=""/><path xmlns="http://www.w3.org/2000/svg" d="m79 307.414062c-5.398438 0-10.800781-1.199218-15.800781-3.796874v13l5.601562 16c.398438 1 1.199219 1.597656 2.199219 1.597656h17c1 0 1.800781-.597656 2.199219-1.597656l5.601562-16v-13.601563c-5.199219 3-11 4.398437-16.800781 4.398437zm0 0" fill="#f9d0b4" data-original="#f9d0b4" style="" class=""/><path xmlns="http://www.w3.org/2000/svg" d="m317.199219 201.816406c-1.199219 0-2.597657.199219-3.800781.398438 0 1.199218.203124 2.601562.203124 4v39.800781c0 1.398437 0 2.601563-.203124 3.800781 13.203124 2.199219 25.601562-6.800781 27.601562-20 2.199219-13.199218-6.800781-25.601562-20-27.601562-1.199219-.398438-2.398438-.398438-3.800781-.398438zm0 0" fill="#f9d0b4" data-original="#f9d0b4" style="" class=""/><path xmlns="http://www.w3.org/2000/svg" d="m197.800781 245.816406v-39.800781c0-1.398437 0-2.601563.199219-4-13.199219-2.199219-25.601562 6.601563-27.800781 19.800781-2.199219 13.199219 6.601562 25.597656 19.800781 27.800782 2.601562.398437 5.398438.398437 8 0 0-1.203126-.199219-2.402344-.199219-3.800782zm0 0" fill="#f9d0b4" data-original="#f9d0b4" style="" class=""/><path xmlns="http://www.w3.org/2000/svg" d="m264.398438 175.816406c-21.199219 26.597656-52.199219 22.800782-62.796876 20.597656-1.601562-.398437-3.402343.800782-3.601562 2.402344v.597656 46.601563c0 31.800781 26 57.800781 57.800781 57.800781s57.800781-26 57.800781-57.800781v-51.601563c0-.398437 0-.597656 0-1 0-1.597656-1.402343-3-3-3-24-.796874-36.601562-10.199218-41.601562-15-1.199219-1.199218-3.199219-1.199218-4.398438 0 0 .203126-.203124.203126-.203124.402344zm0 0" fill="#f9d0b4" data-original="#f9d0b4" style="" class=""/><path xmlns="http://www.w3.org/2000/svg" d="m255.800781 303.617188c-9 0-17.800781-2-25.800781-6.203126v21.402344l11.398438 25.398438c.800781 2 2.800781 3.199218 5 3.199218h19.402343c2.199219 0 4-1.199218 5-3.199218l12.398438-25.597656v-22.203126c-8.398438 4.800782-17.800781 7.203126-27.398438 7.203126zm0 0" fill="#f9d0b4" data-original="#f9d0b4" style="" class=""/><path xmlns="http://www.w3.org/2000/svg" d="m388.398438 180.816406c-4.398438 0-8.597657 1.199219-12.398438 3.398438-4.398438-7.199219-12.199219-11.800782-20.601562-11.800782h-12.398438c-3 0-6 .402344-9 1v35.203126c4.800781 4.597656 7.398438 10.796874 7.398438 17.398437v.800781c8-2.601562 15.203124-7.402344 20.402343-14 .800781-1 2.199219-1.199218 3.199219-.402344 0 0 .199219.203126.199219.203126 3.601562 3.398437 12.800781 10.398437 30.402343 11 1.199219 0 2.199219 1 2.199219 2.199218v.597656 5.601563c5.398438-.800781 11 .800781 15 4.800781v-31.800781c-.402343-13.398437-11-24.199219-24.402343-24.199219zm0 0" fill="#6d6c6b" data-original="#6d6c6b" style="" class=""/><path xmlns="http://www.w3.org/2000/svg" d="m459.601562 203.015625c-3.601562 0-7.203124 1-10.203124 2.800781-3.597657-6-10.199219-9.800781-17.199219-9.800781h-10.398438c-3.402343 0-7 .601563-10.402343 1.601563.800781 2.398437 1.203124 4.796874 1.203124 7.398437v31.800781c1.597657 1.597656 3 3.597656 4 5.597656 8.199219-1.597656 15.597657-6 20.796876-12.597656.601562-.800781 1.800781-1 2.601562-.402344 0 0 .199219 0 .199219.203126 3 3 10.601562 8.597656 25.199219 9.199218 1 0 1.800781.800782 1.800781 1.800782v.597656 4.800781c4.601562-.800781 9.199219.800781 12.402343 4v-26.398437c0-11.601563-9-20.601563-20-20.601563zm0 0" fill="#6d6c6b" data-original="#6d6c6b" style="" class=""/><path xmlns="http://www.w3.org/2000/svg" d="m162.601562 212.617188c.796876-1 2.199219-1.203126 3.199219-.402344 0 0 .199219.199218.199219.199218 1.800781 1.601563 3.601562 3.203126 5.800781 4.402344 1.597657-3.800781 4-7.199218 7.199219-9.800781v-24c-.601562.398437-1.398438.601563-2 1-4.398438-7.199219-12.199219-11.800781-20.601562-11.800781h-12.398438c-24 0-43.601562 19.601562-43.601562 43.601562v19.597656c3.800781-3 8.800781-4.398437 13.800781-3.597656v-2c0-1.199218 1-2.199218 2.199219-2.199218h.402343c7.800781 1.597656 30.398438 4.398437 45.800781-15zm0 0" fill="#6d6c6b" data-original="#6d6c6b" style="" class=""/><path xmlns="http://www.w3.org/2000/svg" d="m100.398438 235.617188v-19.601563c0-4.199219.601562-8.398437 1.800781-12.601563-2.199219.402344-4.199219 1.203126-6 2.402344-3.597657-6-10.199219-9.800781-17.199219-9.800781h-10.398438c-20 0-36.203124 16.199219-36.402343 36.398437v16.203126c3.199219-2.601563 7.402343-3.601563 11.402343-3v-1.601563c0-1 .796876-1.800781 2-1.800781h.398438c6.398438 1.402344 25.398438 3.601562 38.199219-12.597656.601562-.800782 1.800781-1 2.601562-.402344 0 0 .199219 0 .199219.199218 3.601562 3.203126 7.800781 5.601563 12.398438 7 .402343-.398437.601562-.597656 1-.796874zm0 0" fill="#6d6c6b" data-original="#6d6c6b" style="" class=""/><path xmlns="http://www.w3.org/2000/svg" d="m194.199219 201.816406c1.199219 0 2.402343.199219 3.800781.199219v-2.800781c0-1.800782 1.398438-3 3.199219-3h.601562c10.398438 2.199218 41.597657 6 62.800781-20.597656 1-1.402344 3-1.601563 4.398438-.601563 0 0 .199219.199219.199219.199219 4.800781 4.800781 17.601562 14.199218 41.601562 15 1.597657 0 3 1.402344 3 3v1 7.800781c7.398438-1.199219 15 1.199219 20.398438 6.398437v-43.199218c0-18.199219-14.800781-33-33-33-6 0-11.800781 1.601562-16.800781 4.800781-6-10-16.597657-16.199219-28.398438-16.199219h-17c-33 0-59.601562 26.800782-59.601562 59.597656v26.800782c4-3.597656 9.402343-5.398438 14.800781-5.398438zm0 0" fill="#6d6c6b" data-original="#6d6c6b" style="" class=""/><path xmlns="http://www.w3.org/2000/svg" d="m196.800781 73.816406c-9-1.800781-15.800781-8.601562-17.601562-17.601562 0-.199219-.199219-.398438-.398438-.398438s-.199219.199219-.402343.398438c-1.796876 9-8.597657 15.800781-17.597657 17.601562-.199219 0-.402343.199219-.402343.398438 0 .199218.203124.199218.402343.402344 9 1.796874 15.800781 8.597656 17.597657 17.597656 0 .199218.203124.402344.402343.402344s.199219-.203126.398438-.402344c1.800781-9 8.601562-15.800782 17.601562-17.597656.199219 0 .398438-.203126.398438-.402344-.199219-.199219-.398438-.398438-.398438-.398438zm0 0" fill="#fcd770" data-original="#fcd770" style=""/><path xmlns="http://www.w3.org/2000/svg" d="m412.398438 137.015625h-17.398438c-2.800781 0-5-2.199219-5-5s2.199219-5 5-5h17.398438c2.800781 0 5 2.199219 5 5s-2.199219 5-5 5zm0 0" fill="#f75c64" data-original="#f75c64" style="" class=""/><path xmlns="http://www.w3.org/2000/svg" d="m403.800781 145.617188c-2.800781 0-5-2.203126-5-5v-17.402344c0-2.800782 2.199219-5 5-5s5 2.199218 5 5v17.402344c0 2.796874-2.199219 5-5 5zm0 0" fill="#f75c64" data-original="#f75c64" style="" class=""/><path xmlns="http://www.w3.org/2000/svg" d="m348.800781 97.414062c-1.402343 0-2.601562-.597656-3.601562-1.398437-.199219-.199219-.398438-.398437-.597657-.800781-.203124-.199219-.402343-.597656-.402343-.800782-.199219-.398437-.199219-.597656-.199219-1 0-.398437-.199219-.597656-.199219-1 0-.398437 0-.597656.199219-1 0-.398437.199219-.597656.199219-1 .199219-.398437.199219-.597656.402343-.796874.199219-.203126.398438-.601563.597657-.800782 1.402343-1.402344 3.601562-1.800781 5.402343-1 .199219.199219.597657.199219.796876.398438.203124.199218.601562.402344.800781.601562.199219.199219.402343.398438.601562.800782.199219.199218.398438.597656.398438.796874.199219.203126.199219.601563.199219 1 0 .402344 0 .601563.203124 1 0 .402344 0 .601563-.203124 1 0 .402344-.199219.601563-.199219 1-.199219.402344-.199219.601563-.398438.800782-.199219.199218-.402343.601562-.601562.800781s-.398438.398437-.800781.601563c-.199219.199218-.597657.398437-.796876.398437-.402343.199219-.601562.199219-1 .199219-.203124.199218-.402343.199218-.800781.199218zm0 0" fill="#fcd770" data-original="#fcd770" style=""/><path xmlns="http://www.w3.org/2000/svg" d="m264.601562 18.617188h-17.402343c-2.800781 0-5-2.203126-5-5 0-2.800782 2.199219-5 5-5h17.402343c2.796876 0 5 2.199218 5 5 0 2.796874-2.203124 5-5 5zm0 0" fill="#fe4a55" data-original="#60bae2" style="" class=""/><path xmlns="http://www.w3.org/2000/svg" d="m256 27.414062c-2.800781 0-5-2.199218-5-5v-17.398437c0-2.800781 2.199219-5 5-5s5 2.199219 5 5v17.398437c0 2.800782-2.199219 5-5 5zm0 0" fill="#fe4a55" data-original="#60bae2" style="" class=""/><path xmlns="http://www.w3.org/2000/svg" d="m71.199219 125.617188c-.398438 0-.597657 0-1 0-.398438 0-.597657-.203126-1-.203126-.398438-.199218-.597657-.199218-.800781-.398437-.199219-.199219-.597657-.398437-.796876-.601563-1-1-1.402343-2.199218-1.402343-3.597656 0-.402344 0-.601562 0-1 0-.402344.199219-.601562.199219-1 .203124-.402344.203124-.601562.402343-.800781s.398438-.601563.597657-.800781c.203124-.199219.402343-.398438.800781-.597656.199219-.203126.601562-.402344.800781-.402344 1.199219-.597656 2.601562-.597656 3.800781 0 .398438.199218.597657.199218.800781.402344.597657.398437 1 .796874 1.398438 1.398437.199219.199219.398438.601563.398438.800781.203124.398438.203124.597656.203124 1 0 .398438.199219.597656 0 1 0 1.398438-.601562 2.597656-1.402343 3.597656-.199219.203126-.398438.402344-.800781.601563-.199219.199219-.597657.398437-.796876.398437-.402343.203126-.601562.203126-1 .203126.199219 0 0 0-.402343 0zm0 0" fill="#6dcc6d" data-original="#6dcc6d" style="" class=""/><g xmlns="http://www.w3.org/2000/svg" fill="#231f20"><path d="m400.199219 271.816406c-1.199219 0-2.398438-.199218-3.597657-.402344-2.601562-.398437-4.402343-2.597656-4.203124-5.199218 0-.800782 0-1.597656 0-2.398438v-29.199218c0-.800782 0-1.601563 0-2.601563-.199219-2.601563 1.601562-4.800781 4.203124-5.199219 12.398438-2 24 6.398438 26 18.800782 2 12.398437-6.402343 24-18.800781 26-1 .199218-2.199219.199218-3.601562.199218zm2.402343-35v24.800782c6.796876-1.203126 11.398438-7.800782 10.199219-14.800782-1-5-5-9-10.199219-10zm0 0" fill="#231f20" data-original="#231f20" style="" class=""/><path d="m405.398438 459.617188c-2.796876 0-5-2.203126-5-5v-70.601563c0-2.800781 2.203124-5 5-5 2.800781 0 5 2.199219 5 5v70.601563c0 2.796874-2.199219 5-5 5zm0 0" fill="#231f20" data-original="#231f20" style="" class=""/><path d="m366.199219 343.214844h-20.398438c-3.402343 0-6.199219-2-7.402343-5.199219l-6.597657-19.199219c-.199219-.601562-.199219-1-.199219-1.601562v-15.597656c0-2.800782 2.199219-5 5-5 .796876 0 1.597657.199218 2.199219.597656 5.199219 2.601562 10.800781 4 16.597657 4 6.203124 0 12.203124-1.597656 17.601562-4.398438 2.398438-1.402344 5.398438-.402344 6.800781 2 .398438.800782.597657 1.597656.597657 2.398438v16.199218c0 .601563 0 1.203126-.199219 1.601563l-6.597657 19.199219c-1.203124 2.800781-4.203124 5-7.402343 5zm-18.800781-10h17.203124l5.796876-16.800782v-7.796874c-9.398438 3.199218-19.398438 3.199218-29 .398437v7.398437zm0 0" fill="#231f20" data-original="#231f20" style="" class=""/><path d="m412.601562 241.617188c-1.203124 0-2.601562-.601563-3.402343-1.402344-2.800781-2.800782-6.800781-4-10.800781-3.398438-2.796876.398438-5.199219-1.402344-5.796876-4.199218 0-.203126 0-.601563 0-.800782v-3.601562c-14.800781-1-23.800781-6.199219-28.800781-10.199219-5.601562 6.398437-12.800781 11-20.800781 13.601563-2.601562.796874-5.398438-.601563-6.199219-3.203126-.199219-.597656-.199219-1-.199219-1.597656v-.800781c0-5.199219-2.203124-10.199219-5.800781-13.800781-1-1-1.601562-2.199219-1.601562-3.597656v-35.203126c0-2.398437 1.601562-4.398437 4-4.796874 3.402343-.800782 6.601562-1 10-1h12.402343c8.597657 0 16.796876 3.796874 22.199219 10.398437 3.398438-1.398437 7-2 10.800781-2 16 0 29.199219 13 29.199219 29.199219v31.800781c-.199219 2.398437-2.601562 4.601563-5.199219 4.601563zm-10-14.800782c1.597657.199219 3.398438.597656 5 1v-23c0-10.601562-8.402343-19-19-19.199218-3.402343 0-7 1-10 2.796874-2.402343 1.402344-5.402343.601563-6.800781-1.796874-3.402343-5.800782-9.601562-9.402344-16.402343-9.402344h-12.398438c-1.398438 0-2.601562 0-4 .199218v29c3.398438 3.601563 5.601562 8.203126 6.601562 13 4.796876-2.398437 8.796876-5.796874 12.199219-10 2.398438-3.199218 7-3.597656 10.199219-1.199218.199219.199218.398438.402344.601562.601562 2.796876 2.800782 11 9 27 9.597656 3.796876.203126 7 3.203126 7 7.203126zm0 0" fill="#231f20" data-original="#231f20" style="" class=""/><path d="m355.398438 311.015625c-26 0-47.199219-21.199219-47.199219-47.199219v-11.199218c0-.203126 0-.402344 0-.601563.199219-.800781.199219-1.800781.199219-2.601563.203124-2.796874 2.601562-4.796874 5.402343-4.597656h.398438c10.402343 1.800782 20.199219-5.199218 22-15.402344.199219-1 .199219-1.796874.199219-2.796874 0-2.203126 1.402343-4 3.601562-4.601563 7-2.199219 13.398438-6.601563 18-12.398437 2.398438-3.203126 7-3.601563 10.199219-1.203126.199219.203126.402343.402344.601562.601563 2.800781 2.800781 11 9 27 9.601563 3.800781.199218 7 3.199218 7 7.199218v38.398438c-.199219 25.601562-21.402343 46.800781-47.402343 46.800781zm-37.199219-56v8.800781c0 20.597656 16.601562 37.199219 37.199219 37.199219 20.601562 0 37.203124-16.601563 37.203124-37.199219v-35.601562c-14.800781-1-23.800781-6.199219-28.800781-10.199219-4.800781 5.398437-11 9.800781-17.800781 12.398437-2 13.800782-13.800781 24.203126-27.800781 24.601563zm77-26.601563" fill="#231f20" data-original="#231f20" style="" class=""/><path d="m469.398438 279.816406c-1 0-2.199219 0-3.199219-.199218-2.597657-.402344-4.398438-2.601563-4.199219-5.203126 0-.597656 0-1.398437 0-2v-24.398437c0-.601563 0-1.398437 0-2-.199219-2.601563 1.601562-4.800781 4.199219-5.199219 10.800781-1.800781 20.800781 5.597656 22.601562 16.398438 1.800781 10.800781-5.601562 20.800781-16.402343 22.601562-.796876-.199218-2 0-3 0zm2.800781-29v18.597656c5.199219-1.597656 8-7 6.601562-12-1-3.199218-3.402343-5.597656-6.601562-6.597656zm0 0" fill="#231f20" data-original="#231f20" style="" class=""/><path d="m473.601562 436.214844c-2.800781 0-5-2.199219-5-5v-59c0-2.800782 2.199219-5 5-5 2.796876 0 5 2.199218 5 5v59c0 2.800781-2.203124 5-5 5zm0 0" fill="#231f20" data-original="#231f20" style="" class=""/><path d="m441 339.214844h-17c-3.199219 0-5.800781-2-7-5l-5.601562-16c-.199219-.597656-.199219-1-.199219-1.597656v-13c0-2.800782 2.199219-5 5-5 .800781 0 1.601562.199218 2.199219.597656 4.203124 2.199218 8.800781 3.199218 13.402343 3.199218 5 0 10-1.199218 14.398438-3.597656 2.402343-1.402344 5.402343-.402344 6.800781 2 .398438.800782.601562 1.597656.601562 2.398438v13.601562c0 .597656 0 1.199219-.203124 1.597656l-5.597657 16c-1 2.800782-3.800781 4.800782-6.800781 4.800782zm-15.199219-10h13.199219l4.601562-13.398438v-5.199218c-7.203124 2.199218-15 2.398437-22.402343.398437v5zm0 0" fill="#231f20" data-original="#231f20" style="" class=""/><path d="m422.800781 339.015625c-.402343 0-.800781 0-1.199219-.199219l-27.800781-7c-.402343 0-.601562-.199218-1-.402344l-1.199219-.597656c-2.402343-1.199218-3.402343-4.199218-2.203124-6.601562.601562-1.398438 1.800781-2.199219 3.203124-2.597656l5.398438-1.402344 16-7.800782c2.398438-1.199218 5.398438-.199218 6.601562 2.203126 0 .199218.199219.398437.199219.597656l5.199219 15.199218c2 1.800782 2.199219 5 .398438 7-.796876 1-2 1.601563-3.597657 1.601563zm-13-13.601563 4.597657 1.203126-1-3zm0 0" fill="#231f20" data-original="#231f20" style="" class=""/><path d="m493.199219 436.214844h-48c-2.597657 0-4.800781-2-5-4.800782l-4.597657-80.796874c-.203124-5.203126-3.800781-9.402344-8.800781-10.601563l-4-1c-2.601562-.601563-4.402343-3.398437-3.601562-6 .601562-2.199219 2.601562-3.800781 4.800781-3.800781h15l5-14.199219c1-2.601563 3.800781-4 6.398438-3 .203124 0 .402343.199219.601562.199219l16 7.800781 26.800781 6.800781c8 2 13.800781 9 14.199219 17.199219l4 72.199219c.601562 10.402344-7.398438 19.402344-17.800781 20-.398438 0-.800781 0-1 0zm-43.398438-10h43.398438c5 0 8.800781-4 8.800781-8.800782 0-.199218 0-.398437 0-.398437l-4-72.199219c-.199219-3.800781-3-7.199218-6.800781-8.199218l-27.398438-6.800782c-.402343 0-.601562-.199218-1-.402344l-11.402343-5.597656-3.597657 10.597656c-1 2.601563-3.199219 4.601563-6 4.800782 2.199219 3.199218 3.398438 7 3.800781 11zm0 0" fill="#231f20" data-original="#231f20" style="" class=""/><path d="m479.601562 254.414062c-1.203124 0-2.601562-.597656-3.402343-1.398437-2.199219-2.199219-5.199219-3-8.199219-2.601563-2.800781.402344-5.199219-1.398437-5.800781-4.199218 0-.199219 0-.597656 0-.800782v-2.199218c-8.398438-.398438-16.398438-3.199219-23.199219-8.199219-5.800781 6.199219-13.398438 10.398437-21.601562 12-2.398438.398437-4.597657-.800781-5.597657-2.800781-.601562-1.597656-1.601562-2.800782-2.800781-4-1-1-1.601562-2.398438-1.398438-3.800782v-31.398437c0-2-.402343-4-1-5.800781-.800781-2.597656.597657-5.398438 3.199219-6.199219h.199219c3.800781-1.199219 7.800781-1.800781 11.800781-1.800781h10.398438c7.199219 0 14 3.199218 18.800781 8.601562 2.800781-1 5.800781-1.601562 8.800781-1.601562 13.800781 0 25 11.199218 25.199219 25.199218v26.402344c-.398438 2.398438-2.601562 4.597656-5.398438 4.597656zm-7.402343-13.796874c.800781.199218 1.601562.199218 2.402343.597656v-18c0-8.398438-6.601562-15-15-15.199219-2.800781 0-5.402343.800781-7.800781 2.199219-2.402343 1.402344-5.402343.601562-6.800781-1.800782-2.800781-4.597656-7.601562-7.398437-13-7.398437h-10.398438c-1.402343 0-3 .199219-4.402343.398437.199219 1.203126.199219 2.402344.199219 3.601563v29.800781c.402343.597656 1 1.199219 1.402343 1.800782 5.800781-1.800782 10.800781-5.402344 14.398438-10 2.402343-3 6.800781-3.402344 9.601562-1.203126.199219.203126.398438.402344.597657.402344 2.203124 2.199219 8.800781 7.398438 22 7.597656 3.601562.203126 6.601562 3 6.601562 6.800782zm0 0" fill="#231f20" data-original="#231f20" style="" class=""/><path d="m432 312.414062c-22.199219 0-40.199219-18-40.199219-40.199218 0-.398438 0-.800782 0-1 .398438-1.597656.597657-3.199219.597657-4.800782.203124-2.796874 2.601562-4.796874 5.402343-4.597656h.398438c.601562.199219 1.402343.199219 2 .199219 7 0 12.601562-5.601563 12.601562-12.601563 0-1.796874-.402343-3.398437-1-5-1.199219-2.597656 0-5.398437 2.597657-6.597656.402343-.199218.601562-.199218 1-.402344 7-1.398437 13.402343-5.199218 17.800781-11 2.402343-3 6.800781-3.398437 9.601562-1.199218.199219.199218.398438.402344.597657.402344 2.203124 2.199218 8.800781 7.398437 22 7.597656 3.601562.199218 6.601562 3 6.601562 6.800781v32c.199219 22.398437-17.800781 40.398437-40 40.398437zm-30.199219-39.796874c.199219 16.597656 13.800781 30.199218 30.398438 30 16.601562-.203126 30.199219-13.800782 30-30.402344v-29c-8.398438-.398438-16.398438-3.199219-23.199219-8.199219-4.398438 4.800781-10.199219 8.601563-16.398438 10.601563 2 12.398437-6.402343 24-18.800781 26-.601562.199218-1.199219.199218-2 .199218zm0 0" fill="#231f20" data-original="#231f20" style="" class=""/><path d="m111.398438 271.816406c-12.398438 0-22.597657-10.199218-22.597657-22.601562 0-12.398438 10.199219-22.597656 22.597657-22.597656 1.203124 0 2.402343 0 3.601562.199218 2.601562.398438 4.398438 2.597656 4.199219 5.199219v2.601563 29.199218 2.398438c.199219 2.601562-1.597657 4.800781-4.199219 5.199218-1.199219.402344-2.398438.402344-3.601562.402344zm-2.199219-35c-6.800781 1.199219-11.398438 7.800782-10.199219 14.800782 1 5.199218 5 9.199218 10.199219 10.199218zm0 0" fill="#231f20" data-original="#231f20" style="" class=""/><path d="m156.398438 311.015625c-26 0-47.199219-21.199219-47.199219-47.199219v-34c0-4 3.199219-7.199218 7.199219-7.199218.601562 0 1 0 1.402343.199218 7.800781 1.597656 27.398438 3.597656 40.800781-13.199218 2.398438-3.203126 7-3.601563 10.199219-1.203126.199219.203126.398438.402344.597657.601563 1.402343 1.398437 3.203124 2.601563 4.800781 3.601563 2.199219 1.199218 3 3.796874 2 6.199218-4 9.597656.402343 20.800782 10.199219 25 3.402343 1.398438 7 1.800782 10.601562 1.199219 2.800781-.398437 5.199219 1.398437 5.800781 4.199219v.402344c.199219 1.597656.199219 3.199218.597657 4.597656v.800781 9c.203124 25.800781-21 47-47 47zm-37.199219-77.800781v30.800781c0 20.601563 16.601562 37.199219 37.199219 37.199219 20.601562 0 37.203124-16.597656 37.203124-37.199219v-8.800781c-16-.398438-28.800781-13.597656-28.601562-29.800782 0-2.199218.398438-4.398437.800781-6.398437-.402343-.398437-.800781-.601563-1.199219-1-15 17-35.800781 16.601563-45.402343 15.199219zm0 0" fill="#231f20" data-original="#231f20" style="" class=""/><path d="m100.398438 240.414062c-2.796876 0-5-2.199218-5-5v-19.398437c0-26.800781 21.800781-48.601563 48.601562-48.601563h12.398438c8.800781 0 17 4 22.601562 10.800782 1 0 2 .199218 2.800781.800781 1.398438 1 2.398438 2.601563 2.398438 4.199219v24c0 1.601562-.597657 3-1.800781 4-2.597657 2-4.597657 4.601562-5.796876 7.601562-1 2.597656-4 3.800782-6.601562 2.800782-.199219 0-.398438-.203126-.601562-.402344-1.597657-1-3-2-4.597657-3.199219-15.402343 17.199219-36.199219 16.601563-45.800781 15.199219-.601562 2.402344-3 4-5.601562 3.601562-3.398438-.601562-7 .398438-9.796876 2.597656-1 .800782-2 1-3.203124 1zm43.601562-63c-21.398438 0-38.601562 17.203126-38.601562 38.601563v11.398437c1.402343-.398437 3-.597656 4.402343-.796874 1.398438-3 4.800781-4.601563 8-4 7.800781 1.597656 27.398438 3.597656 40.800781-13.203126 2.398438-3.199218 7-3.597656 10.199219-1.199218.199219.199218.398438.402344.597657.601562.203124.199219.402343.398438.601562.597656 1.199219-1.597656 2.398438-3.199218 4-4.597656v-16.601562c-.601562-.398438-1-.800782-1.398438-1.398438-3.402343-5.800781-9.601562-9.402344-16.402343-9.402344zm18.800781 35.203126" fill="#231f20" data-original="#231f20" style="" class=""/><path d="m106.398438 459.617188c-2.796876 0-5-2.203126-5-5v-70.601563c0-2.800781 2.203124-5 5-5 2.800781 0 5 2.199219 5 5v70.601563c0 2.796874-2.199219 5-5 5zm0 0" fill="#231f20" data-original="#231f20" style="" class=""/><path d="m167.199219 343.214844h-20.398438c-3.402343 0-6.199219-2-7.402343-5.199219l-6.597657-19.199219c-.199219-.601562-.199219-1-.199219-1.601562v-15.597656c0-2.800782 2.199219-5 5-5 .796876 0 1.597657.199218 2.199219.597656 5.199219 2.601562 10.800781 4 16.597657 4 6.203124 0 12.203124-1.597656 17.601562-4.398438 2.398438-1.402344 5.398438-.402344 6.800781 2 .398438.800782.597657 1.597656.597657 2.398438v16.199218c0 .601563 0 1.203126-.199219 1.601563l-6.597657 19.199219c-1.203124 2.800781-4.203124 5-7.402343 5zm-18.800781-10h17.203124l5.796876-16.800782v-7.796874c-9.398438 3.199218-19.398438 3.199218-29 .398437v7.398437zm0 0" fill="#231f20" data-original="#231f20" style="" class=""/><path d="m41.601562 279.816406c-10.800781 0-19.601562-8.800781-19.601562-19.601562 0-10.800782 8.800781-19.597656 19.601562-19.597656 1 0 2.199219 0 3.199219.199218 2.597657.398438 4.398438 2.597656 4.199219 5.199219v2 24.199219 2c.199219 2.601562-1.601562 4.800781-4.199219 5.199218-1.199219.203126-2.199219.402344-3.199219.402344zm-2.800781-29c-5.199219 1.597656-8 7-6.601562 12 1 3.199219 3.402343 5.597656 6.601562 6.597656zm0 0" fill="#231f20" data-original="#231f20" style="" class=""/><path d="m79 312.414062c-22.199219 0-40.199219-18-40.199219-40.199218v-28.398438s0 0 0-.199218c0-3.800782 3.199219-6.800782 7-6.800782.398438 0 .800781 0 1.199219.199219 6.398438 1.398437 22.398438 3 33.199219-10.800781 2.402343-3 6.800781-3.398438 9.601562-1.199219.199219.199219.398438.398437.597657.398437 3 2.800782 6.402343 4.800782 10.402343 5.800782 2.597657.800781 4 3.601562 3.199219 6.199218-.199219.800782-.800781 1.601563-1.398438 2.203126-2.601562 2.398437-4 5.796874-4 9.199218 0 7 5.398438 12.597656 12.398438 12.597656.800781 0 1.601562 0 2.199219-.199218 2.800781-.398438 5.199219 1.402344 5.800781 4.199218v.800782 5.601562c.199219 22.597656-17.800781 40.597656-40 40.597656zm-30.199219-64.796874v24.597656c0 16.601562 13.597657 30.199218 30.199219 30.199218s30.199219-13.597656 30.199219-30.199218v-.398438c-12.398438-1.199218-21.597657-12.199218-20.398438-24.601562.199219-3 1.199219-6 2.597657-8.597656-2-1-3.796876-2.203126-5.398438-3.402344-12.398438 13.199218-28.800781 13.402344-37.199219 12.402344zm0 0" fill="#231f20" data-original="#231f20" style="" class=""/><path d="m32.398438 253.617188c-2.796876 0-5-2.203126-5-5v-16.203126c0-22.796874 18.601562-41.398437 41.402343-41.398437h10.398438c7.199219 0 14 3.199219 18.800781 8.601563 1-.402344 2.199219-.800782 3.398438-1 2.601562-.601563 5.402343 1 6 3.796874.203124.800782.203124 1.800782 0 2.601563-1 3.601563-1.597657 7.398437-1.597657 11v19.601563c0 1.597656-.601562 3-1.800781 4-.199219.199218-.398438.398437-.601562.597656-1.398438 1.199218-3.199219 1.601562-5 1-4.199219-1.398438-8.199219-3.398438-11.796876-6-12.601562 13.601562-29.402343 13.601562-37.601562 12.402344-.800781 2.199218-3.199219 3.398437-5.398438 3-2.601562-.402344-5.402343.199218-7.601562 2-1.398438.597656-2.398438 1-3.601562 1zm36.402343-52.601563c-17.402343 0-31.402343 14-31.402343 31.398437v8.601563c.800781-.199219 1.601562-.199219 2.402343-.398437 1.398438-2.601563 4.398438-4 7.398438-3.402344 6.402343 1.402344 22.402343 3 33.199219-10.800782 2.402343-3 6.800781-3.398437 9.601562-1.199218.199219.199218.398438.402344.601562.402344 1.398438 1.398437 3 2.597656 4.796876 3.398437v-13c0-1.800781 0-3.398437.203124-5.199219-1.601562-.199218-2.800781-1-3.601562-2.402344-2.800781-4.597656-7.601562-7.398437-13-7.398437zm31.597657 34.601563" fill="#231f20" data-original="#231f20" style="" class=""/><path d="m37.398438 436.214844c-2.796876 0-5-2.199219-5-5v-59c0-2.800782 2.203124-5 5-5 2.800781 0 5 2.199218 5 5v59c0 2.800781-2.199219 5-5 5zm0 0" fill="#231f20" data-original="#231f20" style="" class=""/><path d="m88 339.214844h-17c-3.199219 0-5.800781-2-7-5l-5.601562-16c-.199219-.597656-.199219-1-.199219-1.597656v-13c0-2.800782 2.199219-5 5-5 .800781 0 1.601562.199218 2.199219.597656 4.203124 2.199218 8.800781 3.199218 13.402343 3.199218 5 0 10-1.199218 14.398438-3.597656 2.402343-1.402344 5.402343-.402344 6.800781 2 .398438.800782.601562 1.597656.601562 2.398438v13.601562c0 .597656 0 1.199219-.203124 1.597656l-5.597657 16c-.800781 2.800782-3.601562 4.800782-6.800781 4.800782zm-15-10h13.199219l4.601562-13.398438v-5.199218c-7.199219 2.199218-15 2.398437-22.402343.398437v5zm0 0" fill="#231f20" data-original="#231f20" style="" class=""/><path d="m68 436.214844h-49.199219c-10.402343 0-18.800781-8.398438-18.800781-18.800782 0-.398437 0-.796874 0-1l4-72.199218c.398438-8.199219 6.199219-15.199219 14.199219-17.199219l26.800781-6.800781 16-7.800782c2.398438-1.199218 5.398438-.199218 6.601562 2.203126 0 .199218.199219.398437.199219.597656l5 14.199218h13.199219l5-14.199218c1-2.597656 3.800781-4 6.398438-3 .203124 0 .402343.199218.601562.199218l16 7.800782 6 1.601562c2.601562.597656 4.398438 3.398438 3.601562 6-.402343 1.398438-1.402343 2.597656-2.601562 3.199219l-1 .398437c-.398438.203126-.601562.203126-1 .402344l-32.800781 8.199219c-5 1.199219-8.597657 5.601563-8.800781 10.601563l-4.597657 80.796874c0 2.800782-2.199219 4.800782-4.800781 4.800782zm-7.601562-112.597656-11.398438 5.597656c-.398438.199218-.601562.199218-1 .402344l-27.398438 6.796874c-3.800781 1-6.601562 4.203126-6.800781 8.203126l-4 72.199218c-.199219 5 3.398438 9.199219 8.398438 9.398438h.402343 44.199219l4.199219-76.199219c.199219-4 1.398438-7.800781 3.601562-11-3.203124 0-5.800781-2-7-5zm38.203124 0-1.203124 3.199218 5-1.199218zm0 0" fill="#231f20" data-original="#231f20" style="" class=""/><path d="m317.199219 255.015625c-1.597657 0-3.199219-.199219-4.597657-.398437-2.601562-.402344-4.402343-2.601563-4.203124-5.203126 0-1.199218.203124-2.398437.203124-3.597656v-39.800781c0-1.199219 0-2.398437-.203124-3.601563-.199219-2.597656 1.601562-4.796874 4.203124-5.199218 15.796876-2.597656 30.796876 8.199218 33.398438 24.199218 2.601562 15.800782-8.199219 30.800782-24.199219 33.402344-1.402343.199219-3 .199219-4.601562.199219zm1.402343-48.199219v38.199219c10.597657-.800781 18.597657-9.800781 17.796876-20.398437-.796876-9.601563-8.398438-17.203126-17.796876-17.800782zm0 0" fill="#231f20" data-original="#231f20" style="" class=""/><path d="m194.199219 255.015625c-16 0-29.199219-13-29.199219-29.199219 0-16.199218 13-29 29.199219-29 1.601562 0 3.199219.199219 4.601562.398438 2.597657.402344 4.398438 2.601562 4.199219 5.199218 0 1.203126-.199219 2.402344-.199219 3.601563v39.800781c0 1.199219 0 2.398438.199219 3.597656.199219 2.601563-1.601562 4.800782-4.199219 5.203126-1.402343.398437-3 .398437-4.601562.398437zm-1.199219-48.199219c-10.601562.800782-18.601562 9.800782-17.800781 20.398438.601562 9.601562 8.199219 17.199218 17.800781 17.800781zm0 0" fill="#231f20" data-original="#231f20" style="" class=""/><path d="m255.800781 308.617188c-34.601562 0-62.800781-28.203126-62.800781-62.800782v-46.402344c0-4.398437 3.601562-8 8-8 .601562 0 1.199219 0 1.601562.203126 11 2.398437 38.796876 5 57.796876-18.800782 2.800781-3.601562 7.800781-4.199218 11.402343-1.402344.199219.203126.398438.402344.597657.601563 4 3.800781 15.601562 12.800781 38.203124 13.601563 4.398438.199218 7.796876 3.597656 7.796876 8v1 51.398437c0 34.601563-28 62.601563-62.597657 62.601563zm-52.800781-107v44.199218c0 29.199219 23.601562 52.800782 52.800781 52.800782s52.800781-23.601563 52.800781-52.800782v-50.402344c-22.203124-1-35.203124-9.199218-41.601562-15-21.601562 25.402344-52.199219 23.402344-64 21.203126zm61.398438-25.800782" fill="#231f20" data-original="#231f20" style="" class=""/><path d="m334 213.617188c-1.199219 0-2.601562-.601563-3.398438-1.402344-3.601562-3.398438-8.402343-5.398438-13.203124-5.398438-1 0-2 0-3 .199219-2.796876.398437-5.199219-1.398437-5.796876-4.199219 0-.199218 0-.601562 0-.800781v-6.800781c-22.203124-1-35.203124-9.199219-41.601562-15-21.601562 25.601562-52 23.402344-64 21.199218v.402344c0 2.800782-2.199219 5-5 5-.199219 0-.601562 0-.800781 0-1-.199218-2-.199218-3-.199218-4.398438 0-8.597657 1.398437-12 4.199218-2.199219 1.800782-5.398438 1.398438-7-.800781-.800781-.800781-1-2-1-3.199219v-26.402344c0-35.597656 29-64.597656 64.601562-64.597656h17c11.800781 0 22.800781 5.398438 30 14.800782 4.800781-2.203126 10-3.203126 15.199219-3.203126 21 0 38 17 38 38v43.402344c0 2.597656-2.199219 4.800782-5 4.800782zm-15.398438-16.800782c3.597657.199219 7.199219 1 10.398438 2.398438v-34c0-15.398438-12.398438-28-27.800781-28-5.199219 0-10.199219 1.402344-14.398438 4-2.402343 1.402344-5.402343.601562-6.800781-1.800782-5-8.398437-14.199219-13.597656-24-13.796874h-17c-30.199219 0-54.601562 24.398437-54.601562 54.597656v18.199218c3-1 6-1.597656 9.203124-1.796874.398438-1.402344 1.398438-2.800782 2.597657-3.800782 1.800781-1.601562 4.402343-2.199218 6.800781-1.601562 11 2.402344 38.800781 5 57.800781-18.800782 2.800781-3.597656 7.800781-4.199218 11.398438-1.398437.199219.199219.402343.398437.601562.601563 4 3.796874 15.597657 12.796874 38.199219 13.597656 4.398438.199218 7.800781 3.601562 7.800781 8v1zm0 0" fill="#231f20" data-original="#231f20" style="" class=""/><path d="m256.601562 378.015625c-1.402343 0-2.601562-.601563-3.601562-1.398437-.199219-.203126-.398438-.402344-.601562-.800782-.398438-.601562-.597657-1.199218-.796876-1.800781 0-.398437-.203124-.601563-.203124-1 0-2.800781 2.203124-5 5-5h1c.402343 0 .601562.199219 1 .199219.203124.199218.601562.199218.800781.402344.199219.199218.601562.398437.800781.597656 1 1 1.398438 2.199218 1.398438 3.601562v1c-.199219.597656-.398438 1.199219-.796876 1.800782-.203124.199218-.402343.597656-.601562.796874-.199219.203126-.398438.402344-.800781.601563-.199219.199219-.597657.398437-.800781.398437-.398438.203126-.597657.203126-1 .203126-.199219.398437-.597657.398437-.796876.398437zm0 0" fill="#231f20" data-original="#231f20" style="" class=""/><path d="m256.601562 403.816406c-.402343 0-.601562 0-1-.199218-.402343 0-.601562-.203126-1-.203126-.203124-.199218-.601562-.199218-.800781-.398437s-.601562-.398437-.800781-.601563c-2-2-2-5 0-7 .199219-.199218.398438-.398437.800781-.597656.199219-.199218.597657-.402344.800781-.402344.398438-.199218.597657-.199218 1-.199218.597657-.199219 1.398438-.199219 2 0 .398438 0 .597657.199218 1 .199218.398438.203126.597657.203126.796876.402344.203124.199219.601562.398438.800781.597656 2 2 2 5 0 7-.199219.203126-.398438.402344-.800781.601563-.199219.199219-.597657.398437-.796876.398437-.402343.203126-.601562.203126-1 .203126-.402343.199218-.800781.199218-1 .199218zm0 0" fill="#231f20" data-original="#231f20" style="" class=""/><path d="m256.601562 429.617188c-.402343 0-.601562 0-1-.203126-.402343 0-.601562-.199218-1-.199218-.203124-.199219-.601562-.199219-.800781-.398438-.199219-.199218-.601562-.402344-.800781-.601562-1-1-1.398438-2.199219-1.398438-3.597656 0-1.402344.597657-2.601563 1.398438-3.601563 2-1.800781 5-1.800781 7 0 1 1 1.398438 2.199219 1.398438 3.601563.203124 2.796874-2 5-4.796876 5zm0 0" fill="#231f20" data-original="#231f20" style="" class=""/><path d="m256.601562 455.414062c-.402343 0-.601562 0-1-.199218-.402343 0-.601562-.199219-1-.199219-.402343-.199219-.601562-.199219-.800781-.398437-.601562-.402344-1-.800782-1.402343-1.402344-.199219-.199219-.398438-.597656-.398438-.800782-.199219-.398437-.199219-.597656-.398438-1-.203124-.597656-.203124-1.398437 0-2 0-.398437.199219-.597656.398438-1 .199219-.398437.199219-.597656.398438-.796874.402343-.601563.800781-1 1.402343-1.402344.199219-.199219.597657-.398438.800781-.398438.398438-.199218.597657-.199218 1-.199218 1.597657-.402344 3.398438.199218 4.398438 1.398437.199219.199219.398438.398437.601562.800781.199219.199219.398438.597656.398438.800782.199219.398437.199219.597656.199219 1 .199219.597656.199219 1.398437 0 2 0 .398437-.199219.597656-.199219 1-.199219.398437-.199219.597656-.398438.796874-.402343.601563-.800781 1-1.402343 1.402344-.199219.199219-.597657.398438-.800781.398438-.398438.199218-.597657.199218-1 .199218-.199219 0-.597657 0-.796876 0zm0 0" fill="#231f20" data-original="#231f20" style="" class=""/><path d="m256.601562 481.015625c-2.800781 0-5-2.199219-5-5 0-.398437 0-.601563 0-1s.199219-.601563.398438-1 .199219-.601563.398438-.800781c.203124-.199219.402343-.597656.601562-.800782 1.199219-1.199218 2.800781-1.597656 4.398438-1.398437.402343 0 .601562.199219 1 .199219.203124.199218.601562.199218.800781.402344.199219.199218.601562.398437.800781.597656.199219.199218.398438.402344.601562.800781.199219.199219.398438.601563.398438.800781.199219.199219.199219.597656.199219 1 0 .398438 0 .597656.199219 1 0 1.398438-.597657 2.597656-1.398438 3.597656-.199219.203126-.398438.402344-.800781.601563-.199219.199219-.597657.398437-.800781.398437-.398438.203126-.597657.203126-1 .203126-.199219.398437-.597657.398437-.796876.398437zm0 0" fill="#231f20" data-original="#231f20" style="" class=""/><path d="m330.800781 512.015625c-2.800781 0-5-2.199219-5-5v-96.800781c0-2.800782 2.199219-5 5-5s5 2.199218 5 5v96.800781c0 2.800781-2.402343 5-5 5zm0 0" fill="#231f20" data-original="#231f20" style="" class=""/><path d="m182.398438 512.015625c-2.796876 0-5-2.199219-5-5v-96.800781c0-2.800782 2.203124-5 5-5 2.800781 0 5 2.199218 5 5v96.800781c0 2.800781-2.199219 5-5 5zm0 0" fill="#231f20" data-original="#231f20" style="" class=""/><path d="m265.800781 352.617188h-19.402343c-4.199219 0-7.796876-2.402344-9.597657-6.203126l-11.402343-25.398437c-.199219-.601563-.398438-1.398437-.398438-2v-21.398437c0-2.800782 2.199219-5 5-5 .800781 0 1.601562.199218 2.199219.597656 7.199219 3.601562 15.402343 5.601562 23.601562 5.601562 8.800781 0 17.398438-2.199218 25-6.402344 2.398438-1.398437 5.398438-.398437 6.800781 2 .398438.800782.597657 1.601563.597657 2.402344v22.199219c0 .800781-.199219 1.601563-.398438 2.199219l-12.402343 25.601562c-1.796876 3.597656-5.597657 5.800782-9.597657 5.800782zm-30.800781-34.800782 11 24.398438c0 .199218.199219.402344.398438.402344h19.402343c.199219 0 .398438-.203126.398438-.203126l12-24.597656v-13.402344c-7.199219 2.800782-14.800781 4.203126-22.398438 4.203126-7 0-14.199219-1.203126-20.800781-3.601563zm0 0" fill="#231f20" data-original="#231f20" style="" class=""/><path d="m364.199219 512.015625h-215.398438c-11.199219 0-20.199219-9-20.199219-20.199219 0-.402344 0-.800781 0-1.199218l7-126.601563c.597657-12.199219 9.199219-22.398437 21-25.398437l44.398438-11.203126 26.601562-13c2.398438-1.199218 5.398438-.199218 6.597657 2.203126v.199218l11.402343 25.398438c0 .199218.199219.402344.398438.402344h19.398438c.203124 0 .402343-.203126.402343-.203126l12.398438-25.597656c1.199219-2.402344 4.199219-3.601562 6.601562-2.402344l26.597657 13 44.402343 11.203126c11.800781 3 20.398438 13.199218 21 25.398437l7 126.601563c.597657 11-7.800781 20.597656-19 21.199218.199219.199219-.199219.199219-.601562.199219zm-136.800781-186.398437-22.398438 11c-.398438.199218-.601562.199218-1 .398437l-44.800781 11.199219c-7.597657 1.800781-13 8.402344-13.398438 16.199218l-7 126.601563c-.402343 5.601563 4 10.398437 9.597657 10.601563h.601562 215.398438c5.601562 0 10.203124-4.601563 10.203124-10.203126 0-.199218 0-.398437 0-.597656l-7-126.601562c-.402343-7.800782-5.800781-14.398438-13.402343-16.199219l-44.800781-11.199219c-.398438 0-.597657-.199218-1-.402344l-22.398438-11-10.199219 21c-1.800781 3.601563-5.402343 6-9.402343 6h-19.398438c-4.199219 0-7.800781-2.398437-9.601562-6.199218zm0 0" fill="#231f20" data-original="#231f20" style="" class=""/><path d="m256.601562 276.617188c-9 0-17.601562-4.601563-22.601562-12-1.601562-2.203126-1-5.402344 1.398438-7 2.203124-1.601563 5.402343-1 7 1.398437 5.402343 8 16.203124 10 24 4.601563 1.800781-1.203126 3.402343-2.800782 4.601562-4.601563 1.601562-2.199219 4.601562-2.800781 7-1.398437 2.398438 1.398437 2.800781 4.597656 1.398438 7-5.199219 7.398437-13.796876 12-22.796876 12zm0 0" fill="#231f20" data-original="#231f20" style="" class=""/><path d="m234.601562 231.015625c-.402343 0-.601562 0-1-.199219-.402343 0-.601562-.199218-1-.199218-.402343-.203126-.601562-.203126-.800781-.402344-.199219-.199219-.601562-.398438-.800781-.597656-2-2-2-5.203126 0-7 .199219-.203126.398438-.402344.800781-.601563.199219-.199219.597657-.398437.800781-.398437.398438-.203126.597657-.203126 1-.203126 2.796876-.597656 5.398438 1.203126 5.796876 4 .402343 2.800782-1.199219 5.402344-4 5.800782-.199219-.398438-.597657-.199219-.796876-.199219zm0 0" fill="#231f20" data-original="#231f20" style="" class=""/><path d="m278.601562 231.015625c-.402343 0-.601562 0-1-.199219-.402343 0-.601562-.199218-1-.199218-.402343-.203126-.601562-.203126-.800781-.402344-.199219-.199219-.601562-.398438-.800781-.597656-2-2-2-5 0-7 .199219-.203126.398438-.402344.800781-.601563.199219-.199219.597657-.398437.800781-.398437.398438-.203126.597657-.203126 1-.203126 2.796876-.597656 5.398438 1.203126 5.796876 4 .601562 2.800782-1.199219 5.402344-4 5.800782-.199219-.398438-.398438-.199219-.796876-.199219zm0 0" fill="#231f20" data-original="#231f20" style="" class=""/><path d="m292.199219 373.214844c-3 0-5.800781-1.398438-7.800781-3.800782l-17.597657-21.796874c-1.199219-1.601563-1.402343-3.601563-.601562-5.402344l12.402343-25.597656c1.199219-2.402344 4.199219-3.601563 6.597657-2.402344l27 13.402344c2.402343 1.199218 3.402343 4 2.402343 6.398437l-13.402343 32.800781c-1.398438 3.199219-4.199219 5.597656-7.800781 6.199219-.199219.199219-.796876.199219-1.199219.199219zm-15.597657-29.398438 15.597657 19.398438 11.601562-28.597656-18.402343-9zm0 0" fill="#231f20" data-original="#231f20" style="" class=""/><path d="m221 373.214844c-.398438 0-1 0-1.398438-.199219-3.601562-.398437-6.402343-2.800781-7.800781-6.199219l-13.402343-32.800781c-1-2.398437 0-5.199219 2.402343-6.398437l27-13.402344c2.398438-1.199219 5.398438-.199219 6.597657 2.199218v.203126l11.402343 25.398437c1.199219 1.800781 1.199219 4.199219-.199219 6l-17 21.199219c-1.800781 2.601562-4.601562 4-7.601562 4zm-11.800781-38.597656 11.601562 28.597656 15-18.800782-8.402343-18.796874zm0 0" fill="#231f20" data-original="#231f20" style="" class=""/><path d="m304.199219 429.617188h-24.398438c-2.800781 0-5-2.203126-5-5 0-2.800782 2.199219-5 5-5h24.398438c2.800781 0 5 2.199218 5 5 0 2.796874-2.398438 5-5 5zm0 0" fill="#231f20" data-original="#231f20" style="" class=""/><path d="m428.800781 459.617188h-51.402343c-2.597657 0-4.796876-2-5-4.800782l-5-90.199218c-.398438-7.800782-5.796876-14.402344-13.398438-16.203126l-44.800781-11.199218c-.398438 0-.597657-.199219-1-.398438l-4.800781-2.402344c-2.398438-1.199218-3.398438-4.199218-2.199219-6.597656.601562-1.402344 1.800781-2.199218 3.199219-2.601562l11-2.800782 19.203124-9.398437c2.398438-1.199219 5.398438-.199219 6.597657 2.199219 0 .199218.199219.402344.199219.601562l6.203124 17.597656h17.199219l6.199219-17.597656c1-2.601562 3.800781-4 6.398438-3 .203124 0 .402343.199219.601562.199219l19.199219 9.398437 32.199219 8.203126c9.203124 2.199218 15.800781 10.398437 16.402343 19.796874l4.800781 86.601563c.597657 12-8.402343 22.199219-20.402343 22.800781-.800781-.199218-1.199219-.199218-1.398438-.199218zm-46.800781-10h46.601562c6.398438 0 11.597657-5.203126 11.597657-11.601563 0-.199219 0-.398437 0-.601563l-4.800781-86.597656c-.199219-5.199218-3.796876-9.402344-8.796876-10.601562l-32.800781-8.199219c-.402343 0-.601562-.199219-1-.398437l-14.601562-7.203126-4.800781 13.800782c-1 3.199218-4 5.199218-7.398438 5.199218 6.800781 5 10.800781 12.601563 11.398438 21zm-60.199219-119.601563 15.199219 3.800781-3.398438-9.601562zm0 0" fill="#231f20" data-original="#231f20" style="" class=""/><path d="m135.800781 459.617188h-51.601562c-12 0-21.597657-9.601563-21.597657-21.601563 0-.398437 0-.800781 0-1.199219l4.796876-86.601562c.402343-9.398438 7.203124-17.597656 16.402343-19.800782l32.199219-8.199218 19.199219-9.398438c2.402343-1.199218 5.402343-.199218 6.601562 2.199219 0 .199219.199219.398437.199219.601563l6.199219 17.597656h17.199219l6.203124-17.597656c1-2.601563 3.796876-4 6.398438-3 .199219 0 .398438.199218.601562.199218l19.199219 9.398438 11 2.800781c2.597657.601563 4.398438 3.398437 3.597657 6-.398438 1.398437-1.398438 2.601563-2.597657 3.199219l-4.800781 2.402344c-.398438.199218-.601562.199218-1 .398437l-44.800781 11.199219c-7.597657 1.800781-13 8.402344-13.398438 16.199218l-5 90.203126c-.199219 3-2.402343 5-5 5zm-1.199219-135.402344-14.601562 7.199218c-.398438.203126-.601562.203126-1 .402344l-32.800781 8.199219c-5 1.199219-8.597657 5.601563-8.800781 10.601563l-4.796876 86.597656c-.402343 6.402344 4.597657 12 11 12.199218h.597657 46.800781l4.800781-85.597656c.398438-8.402344 4.597657-16 11.398438-21h-.398438c-3.402343 0-6.199219-2-7.402343-5.199218zm44.796876 0-3.398438 9.601562 15.199219-3.800781zm0 0" fill="#231f20" data-original="#231f20" style="" class=""/></g></g></svg>
