<?xml version="1.0"?>
<svg xmlns="http://www.w3.org/2000/svg" xmlns:xlink="http://www.w3.org/1999/xlink" xmlns:svgjs="http://svgjs.com/svgjs" version="1.1" width="512" height="512" x="0" y="0" viewBox="0 0 128 128" style="enable-background:new 0 0 512 512" xml:space="preserve" class=""><g><path xmlns="http://www.w3.org/2000/svg" d="m99.961 95.48h3.409c2.717 0 4.927-2.21 4.927-4.927 0-2.462-1.822-4.49-4.185-4.851-.137-.069-14.382-.075-14.382-.075-2.717 0-4.927 2.21-4.927 4.926 0 1.516.703 2.858 1.784 3.762-2.338 1.701-4.975 2.966-7.79 3.712-1.452-1.548-3.453-2.54-5.66-2.606-2.273-.056-4.396.761-6.016 2.332-.097.094-.182.195-.273.293-10.056-2.642-17.497-11.808-17.497-22.682 0-9.719 5.944-18.075 14.388-21.627 1.015 1.517 2.346 2.813 3.953 3.786 1.998 1.208 4.239 1.828 6.516 1.828 1.015 0 2.036-.123 3.046-.372.955-.236 1.852-.584 2.694-1.012.818 1.811 2.158 3.335 3.896 4.385.787.476 1.623.835 2.486 1.075l1.168 4.739c.063.257.227.479.453.617.157.095.337.144.518.144.08 0 .16-.01.239-.029l7.532-1.856c.536-.132.864-.674.731-1.21l-1.177-4.776c2.498-2.376 3.696-5.985 2.814-9.566l-5.078-20.607c-.633-2.573-2.23-4.745-4.498-6.116-.843-.51-1.741-.884-2.669-1.123l-1.731-7.027 1.338-.33c1.187-.292 2.188-1.029 2.82-2.075.633-1.046.82-2.275.527-3.462-.604-2.45-3.088-3.948-5.536-3.348l-12.058 2.971c-2.449.604-3.951 3.087-3.348 5.537.292 1.187 1.029 2.188 2.074 2.82.724.438 1.535.662 2.359.662.367 0 .736-.045 1.103-.135l1.07-.264 1.813 7.357c-1.955 2.019-3.015 4.824-2.77 7.735-.932.015-1.875.122-2.817.354-3.277.808-6.044 2.843-7.791 5.731-.602.996-1.048 2.055-1.354 3.147-13.39 4.499-23.066 17.159-23.066 32.046 0 2.65.316 5.227.896 7.703h-9.168c-1.648 0-2.99 1.341-2.99 2.99v2.138c0 1.649 1.341 2.99 2.99 2.99h.308v11.651l-6.861 17.817c-.355.923-.233 1.961.326 2.776.56.815 1.484 1.302 2.473 1.302h74.803c2.124 0 3.852-1.728 3.852-3.851v-5.67c0-2.123-1.728-3.851-3.852-3.851h-13.252c-2.659 0-4.985-1.421-6.28-3.539 7.092-2.051 13.316-6.378 17.72-12.339zm-42.714 15.88h-10.727c-.269 0-.53.028-.784.081l-3.313-8.604v-11.652h.308c.068 0 .132-.016.2-.02 4.265 8.031 11.673 14.142 20.574 16.693-1.3 2.097-3.615 3.502-6.258 3.502z" fill="#e6e7e8" data-original="#e6e7e8" style=""/><circle xmlns="http://www.w3.org/2000/svg" cx="33.61" cy="74.345" fill="#e6e7e8" r="3.831" data-original="#e6e7e8" style=""/><circle xmlns="http://www.w3.org/2000/svg" cx="33.61" cy="56.468" fill="#e6e7e8" r="3.831" data-original="#e6e7e8" style=""/><circle xmlns="http://www.w3.org/2000/svg" cx="27.533" cy="66.341" fill="#e6e7e8" r="3.831" data-original="#e6e7e8" style=""/><path xmlns="http://www.w3.org/2000/svg" d="m76.159 99.997c0 1.13.227 2.205.633 3.188 7.532-1.881 14.152-6.377 18.677-12.705h-9.739c-.488 0-.951-.1-1.382-.263-2.873 2.368-6.265 4.047-9.911 4.915 1.076 1.337 1.722 3.045 1.722 4.865z" fill="#fe4a55" data-original="#fa759e" style="" class=""/><path xmlns="http://www.w3.org/2000/svg" d="m60.966 103.216c.414-.991.644-2.078.644-3.218v-.305c0-1.716.6-3.288 1.593-4.532-10.792-2.54-18.851-12.241-18.851-23.796 0-10.435 6.573-19.359 15.795-22.862-.529-.921-.947-1.925-1.214-3.008-.453-1.838-.431-3.678-.03-5.404-13.265 4.208-22.905 16.635-22.905 31.274 0 15.387 10.652 28.328 24.968 31.851z" fill="#fe4a55" data-original="#fa759e" style="" class=""/><path xmlns="http://www.w3.org/2000/svg" d="m99.37 90.48h-13.64c-2.169 0-3.927-1.758-3.927-3.927 0-2.169 1.758-3.927 3.927-3.927h13.64c2.169 0 3.927 1.758 3.927 3.927 0 2.169-1.758 3.927-3.927 3.927z" fill="#0089ef" data-original="#0089ef" style="" class=""/><path xmlns="http://www.w3.org/2000/svg" d="m97.774 108.36h-13.253c-4.618 0-8.362-3.744-8.362-8.362 0-3.983-3.069-7.457-7.051-7.576-4.12-.124-7.498 3.179-7.498 7.271v.305c0 4.618-3.744 8.362-8.362 8.362h-10.728c-.496 0-.956.138-1.362.361l3.193 8.292c.503 1.305-.456 2.706-1.851 2.717.007 0 .013.002.019.002h55.254c1.574 0 2.851-1.276 2.851-2.851v-5.67c.001-1.575-1.276-2.851-2.85-2.851z" fill="#0089ef" data-original="#0089ef" style="" class=""/><circle xmlns="http://www.w3.org/2000/svg" cx="68.802" cy="100.182" fill="#ffd7e5" r="2.477" data-original="#ffd7e5" style="" class=""/><path xmlns="http://www.w3.org/2000/svg" d="m77.765 20.595c1.28-.315 2.562-.329 3.778-.1l-2.122-8.611-7.708 1.899 2.185 8.87c1.063-.966 2.374-1.69 3.867-2.058z" fill="#0089ef" data-original="#0089ef" style="" class=""/><path xmlns="http://www.w3.org/2000/svg" d="m81.731 11.316-12.058 2.971c-1.917.472-3.854-.699-4.326-2.616-.472-1.917.699-3.854 2.616-4.326l12.058-2.971c1.917-.472 3.854.699 4.326 2.616.472 1.917-.699 3.854-2.616 4.326z" fill="#fe4a55" data-original="#fa759e" style="" class=""/><path xmlns="http://www.w3.org/2000/svg" d="m87.11 58.526c-1.344.331-2.689.328-3.958.062l1.316 5.341 7.532-1.857-1.321-5.36c-1.007.841-2.209 1.479-3.569 1.814z" fill="#0089ef" data-original="#0089ef" style="" class=""/><path xmlns="http://www.w3.org/2000/svg" d="m93.637 47.731-5.077-20.608c-1.179-4.783-6.012-7.706-10.795-6.527-4.693 1.156-7.585 5.831-6.579 10.525 4.847.399 9.116 3.824 10.344 8.807 1.226 4.978-.958 9.989-5.056 12.596 1.393 4.467 6.033 7.137 10.637 6.003 4.783-1.18 7.705-6.013 6.526-10.796z" fill="#fe4a55" data-original="#fa759e" style="" class=""/><path xmlns="http://www.w3.org/2000/svg" d="m93.637 47.731-5.077-20.608c-1.179-4.783-6.012-7.706-10.795-6.527-.758.187-1.462.474-2.117.829 4.482-.64 8.807 2.209 9.913 6.698l5.077 20.608c.992 4.026-.927 8.078-4.41 9.966.294-.042.588-.098.882-.171 4.784-1.179 7.706-6.012 6.527-10.795z" fill="#ffffff" data-original="#ffffff" style="" class=""/><circle xmlns="http://www.w3.org/2000/svg" cx="70.231" cy="42.711" fill="#0089ef" r="11.636" data-original="#0089ef" style="" class=""/><circle xmlns="http://www.w3.org/2000/svg" cx="70.231" cy="42.711" fill="#ffd7e5" r="5.541" data-original="#ffd7e5" style="" class=""/><path xmlns="http://www.w3.org/2000/svg" d="m44.351 117.013-6.928-17.991v-12.837h-9.39v12.837l-6.928 17.991c-.505 1.31.462 2.719 1.866 2.719h19.514c1.404 0 2.371-1.409 1.866-2.719z" fill="#ffffff" data-original="#ffffff" style="" class=""/><path xmlns="http://www.w3.org/2000/svg" d="m27.126 101.377-6.021 15.636c-.505 1.31.462 2.719 1.866 2.719h19.514c1.404 0 2.371-1.409 1.866-2.719l-6.021-15.636z" fill="#6dc9f7" data-original="#6dc9f7" style=""/><path xmlns="http://www.w3.org/2000/svg" d="m38.731 86.185h-12.006c-1.099 0-1.99-.891-1.99-1.99v-2.138c0-1.099.891-1.99 1.99-1.99h12.006c1.099 0 1.99.891 1.99 1.99v2.138c0 1.099-.891 1.99-1.99 1.99z" fill="#ffffff" data-original="#ffffff" style="" class=""/><circle xmlns="http://www.w3.org/2000/svg" cx="29.61" cy="70.345" fill="#6dc9f7" r="2.831" data-original="#6dc9f7" style=""/><circle xmlns="http://www.w3.org/2000/svg" cx="29.61" cy="52.468" fill="#6dc9f7" r="2.831" data-original="#6dc9f7" style=""/><circle xmlns="http://www.w3.org/2000/svg" cx="23.533" cy="62.341" fill="#6dc9f7" r="2.831" data-original="#6dc9f7" style=""/><g xmlns="http://www.w3.org/2000/svg" fill="#3a2c60"><path d="m95.969 91.48h3.401c2.717 0 4.927-2.21 4.927-4.927 0-2.716-2.21-4.926-4.927-4.926h-13.64c-2.717 0-4.927 2.21-4.927 4.926 0 1.51.698 2.847 1.771 3.752-2.359 1.712-5.007 2.962-7.798 3.701-1.45-1.535-3.442-2.519-5.639-2.585-2.277-.056-4.396.761-6.016 2.332-.091.088-.171.184-.257.275-10.061-2.638-17.513-11.787-17.513-22.665 0-9.718 5.951-18.059 14.392-21.611 2.328 3.459 6.268 5.595 10.488 5.595.997 0 2.011-.12 3.021-.368.957-.236 1.854-.586 2.698-1.014 1.23 2.709 3.6 4.673 6.375 5.448l1.171 4.753c.063.257.227.479.453.617.157.095.337.144.518.144.08 0 .16-.01.239-.029l7.532-1.856c.536-.132.864-.674.731-1.21l-1.176-4.776c2.498-2.376 3.696-5.986 2.814-9.566l-5.077-20.608c-.904-3.664-3.746-6.348-7.166-7.232l-1.733-7.034 1.339-.33c1.187-.292 2.188-1.029 2.82-2.075s.819-2.275.526-3.461c-.292-1.187-1.028-2.188-2.074-2.821s-2.277-.819-3.462-.528l-12.056 2.972c-1.187.292-2.188 1.029-2.82 2.075s-.82 2.275-.527 3.461c.513 2.083 2.387 3.48 4.443 3.48.36 0 .728-.043 1.094-.133l1.069-.263 1.811 7.349c-.519.535-.987 1.126-1.383 1.78-1.098 1.817-1.564 3.888-1.383 5.964-.933.015-1.876.122-2.819.354-3.277.808-6.044 2.843-7.791 5.731-.603.997-1.048 2.056-1.354 3.148-13.39 4.499-23.066 17.158-23.066 32.044 0 2.652.325 5.226.906 7.703h-9.178c-1.648 0-2.99 1.341-2.99 2.99v2.138c0 1.649 1.341 2.99 2.99 2.99h.308v11.651l-6.861 17.817c-.355.923-.233 1.961.326 2.776.56.815 1.484 1.302 2.474 1.302h19.514c.005 0 .01-.002.016-.002.007 0 .013.002.02.002h19.093c.552 0 1-.448 1-1s-.448-1-1-1h-16.308c.236-.666.237-1.402-.023-2.078l-2.806-7.288c.014 0 .027-.006.042-.006h10.728c5.163 0 9.362-4.2 9.362-9.362v-.305c0-1.711.677-3.311 1.905-4.503 1.227-1.192 2.855-1.821 4.562-1.768 3.354.101 6.081 3.051 6.081 6.577 0 5.163 4.2 9.362 9.362 9.362h13.254c1.021 0 1.851.83 1.851 1.851v5.67c0 1.021-.83 1.851-1.851 1.851h-21.779c-.553 0-1 .448-1 1s.447 1 1 1h21.778c2.123 0 3.851-1.728 3.851-3.851v-5.67c0-2.123-1.728-3.851-3.851-3.851h-13.254c-2.664 0-4.995-1.427-6.288-3.553 7.034-2.044 13.307-6.332 17.737-12.326zm-10.77-28.762-.727-2.952c.168.009.336.02.505.02.783 0 1.578-.094 2.372-.289.979-.241 1.888-.623 2.712-1.116l.729 2.959zm-15.765-49.403c-1.381.34-2.777-.505-3.116-1.884-.165-.668-.06-1.36.296-1.948.356-.589.92-1.003 1.588-1.168l12.058-2.97c.206-.051.414-.076.62-.076.464 0 .921.126 1.328.373.589.356 1.003.919 1.168 1.587.164.668.06 1.36-.297 1.948-.355.588-.919 1.003-1.587 1.167zm3.489 1.201 5.768-1.421 1.541 6.255c-.891-.03-1.798.05-2.705.273-1.091.269-2.104.721-3.021 1.314zm.199 10.642c1.094-1.81 2.828-3.086 4.883-3.592.634-.156 1.269-.231 1.894-.231 3.559 0 6.803 2.42 7.691 6.026l5.077 20.608c1.045 4.24-1.556 8.54-5.796 9.585-3.84.946-7.714-1.103-9.19-4.644 4.01-2.937 6.08-8.105 4.819-13.222-1.264-5.134-5.523-8.75-10.458-9.474-.217-1.754.151-3.519 1.08-5.056zm-11.993 12.049c1.47-2.431 3.799-4.144 6.557-4.824.851-.209 1.71-.313 2.563-.313 1.916 0 3.803.521 5.484 1.539 2.432 1.47 4.145 3.799 4.824 6.558 1.402 5.694-2.089 11.469-7.783 12.872-5.696 1.406-11.468-2.088-12.872-7.783-.678-2.759-.243-5.617 1.227-8.049zm-24.132 34.158c0-13.61 8.607-25.22 20.652-29.751-.118 1.364-.025 2.751.312 4.119.196.797.471 1.553.803 2.272-9.051 3.904-15.413 12.893-15.413 23.36 0 11.531 7.718 21.272 18.252 24.387-.649 1.194-.994 2.539-.994 3.94v.305c0 .695-.103 1.366-.284 2.004-8.442-2.339-15.478-8.074-19.545-15.64.576-.545.941-1.312.941-2.166v-2.138c0-1.648-1.341-2.99-2.99-2.99h-.764c-.619-2.469-.97-5.044-.97-7.702zm-11.262 12.83v-2.138c0-.546.444-.99.99-.99h12.006c.546 0 .99.444.99.99v2.138c0 .546-.444.99-.99.99h-1.305c-.001 0-.002 0-.002 0h-9.391c-.001 0-.002 0-.002 0h-1.305c-.547 0-.991-.444-.991-.99zm17.574 34.103c-.189.276-.49.434-.825.434h-19.513c-.334 0-.635-.158-.825-.434s-.229-.613-.109-.925l6.928-17.991c.044-.115.067-.236.067-.359v-11.838h7.391v11.837c0 .123.022.245.067.359l6.928 17.991c.12.313.081.65-.109.926zm9.938-10.938h-10.727c-.269 0-.528.035-.779.091l-3.317-8.615v-11.651h.308c.072 0 .14-.016.211-.021 4.266 8.028 11.666 14.138 20.565 16.689-1.299 2.1-3.615 3.507-6.261 3.507zm32.483-23.733h13.64c1.614 0 2.927 1.312 2.927 2.926s-1.312 2.927-2.927 2.927h-13.64c-1.614 0-2.927-1.313-2.927-2.927s1.313-2.926 2.927-2.926zm-8.304 18.312c-.17-.62-.268-1.268-.268-1.941 0-1.54-.411-2.992-1.115-4.253 3.071-.917 5.971-2.404 8.518-4.413.019.005.038.006.056.011.094.022.189.038.285.054.276.05.553.084.828.084h7.717c-4.148 5.087-9.779 8.697-16.021 10.458z" fill="#3a2c60" data-original="#3a2c60" style=""/><path d="m71.832 118.732h-6.155c-.552 0-1 .448-1 1s.448 1 1 1h6.155c.553 0 1-.448 1-1s-.447-1-1-1z" fill="#3a2c60" data-original="#3a2c60" style=""/><path d="m67.002 103.158c.55.333 1.167.503 1.793.503.279 0 .561-.034.839-.102.901-.222 1.663-.782 2.144-1.577s.623-1.729.4-2.631c-.222-.902-.782-1.663-1.577-2.144s-1.729-.624-2.631-.401c-1.861.458-3.003 2.347-2.544 4.208.221.902.782 1.663 1.576 2.144zm1.446-4.41c.118-.029.237-.043.355-.043.267 0 .528.072.763.213.337.205.575.528.67.911.094.383.033.78-.171 1.118-.204.337-.527.575-.91.67-.385.093-.781.034-1.118-.17-.338-.204-.575-.527-.67-.911-.194-.791.29-1.594 1.081-1.788z" fill="#3a2c60" data-original="#3a2c60" style=""/><path d="m70.231 49.252c.517 0 1.041-.062 1.564-.19 3.501-.863 5.648-4.414 4.786-7.916s-4.417-5.645-7.916-4.787c-1.696.418-3.129 1.472-4.033 2.967s-1.171 3.253-.753 4.949c.735 2.979 3.414 4.977 6.352 4.977zm-3.886-8.891c.628-1.038 1.622-1.769 2.8-2.059.363-.09.728-.132 1.086-.132 2.04 0 3.9 1.387 4.41 3.455.599 2.431-.893 4.896-3.323 5.495-2.432.601-4.896-.892-5.496-3.323-.291-1.178-.105-2.398.523-3.436z" fill="#3a2c60" data-original="#3a2c60" style=""/><path d="m29.61 66.514c-2.112 0-3.831 1.718-3.831 3.831s1.718 3.831 3.831 3.831 3.831-1.718 3.831-3.831-1.718-3.831-3.831-3.831zm0 5.661c-1.009 0-1.831-.821-1.831-1.831s.821-1.831 1.831-1.831 1.831.821 1.831 1.831-.821 1.831-1.831 1.831z" fill="#3a2c60" data-original="#3a2c60" style=""/><path d="m29.61 56.298c2.112 0 3.831-1.718 3.831-3.831s-1.718-3.831-3.831-3.831-3.831 1.718-3.831 3.831 1.719 3.831 3.831 3.831zm0-5.661c1.009 0 1.831.821 1.831 1.831s-.821 1.831-1.831 1.831-1.831-.821-1.831-1.831.822-1.831 1.831-1.831z" fill="#3a2c60" data-original="#3a2c60" style=""/><path d="m23.534 66.171c2.112 0 3.831-1.718 3.831-3.831s-1.718-3.831-3.831-3.831-3.831 1.718-3.831 3.831 1.718 3.831 3.831 3.831zm0-5.661c1.009 0 1.831.821 1.831 1.831s-.821 1.831-1.831 1.831-1.831-.821-1.831-1.831.821-1.831 1.831-1.831z" fill="#3a2c60" data-original="#3a2c60" style=""/></g></g></svg>
