<?xml version="1.0"?>
<svg xmlns="http://www.w3.org/2000/svg" xmlns:xlink="http://www.w3.org/1999/xlink" xmlns:svgjs="http://svgjs.com/svgjs" version="1.1" width="512" height="512" x="0" y="0" viewBox="0 0 472.615 472.615" style="enable-background:new 0 0 512 512" xml:space="preserve"><g>
<g xmlns="http://www.w3.org/2000/svg">
	<g>
		<circle cx="147.692" cy="98.47" r="68.923" fill="#ffffff" data-original="#000000" style=""/>
	</g>
</g>
<g xmlns="http://www.w3.org/2000/svg">
	<g>
		<path d="M271.266,200.647c-10.266-9.228-22.454-16.234-36.014-20.319l-15.854-4.629l-67.946,67.947l-68.045-67.947l-15.854,4.629    C27.178,192.539,0,228.974,0,271.12v83.407h211.226c-11.629-47.005,0.726-98.784,37.39-135.448    C255.6,212.093,263.203,205.959,271.266,200.647z" fill="#ffffff" data-original="#000000" style=""/>
	</g>
</g>
<g xmlns="http://www.w3.org/2000/svg">
	<g>
		<path d="M436.618,233.005c-23.253-23.253-54.16-36.053-87.039-36.053c-32.878,0-63.786,12.8-87.039,36.053    c-47.995,47.996-47.995,126.082,0,174.078c23.994,23.993,55.517,35.985,87.039,35.985c31.523,0,63.046-11.992,87.039-35.985    C484.614,359.087,484.614,281.001,436.618,233.005z M246.182,320.044c0-27.619,10.751-53.584,30.283-73.115    c19.531-19.531,45.495-30.283,73.114-30.283c24.309,0,47.327,8.345,65.814,23.659L269.842,385.856    C254.527,367.369,246.182,344.352,246.182,320.044z M422.694,393.157c-37.953,37.954-98.327,40.137-138.912,6.608L429.317,254.23    c15.315,18.487,23.659,41.505,23.659,65.814C452.976,347.662,442.224,373.627,422.694,393.157z" fill="#ffffff" data-original="#000000" style=""/>
	</g>
</g>
<g xmlns="http://www.w3.org/2000/svg">
</g>
<g xmlns="http://www.w3.org/2000/svg">
</g>
<g xmlns="http://www.w3.org/2000/svg">
</g>
<g xmlns="http://www.w3.org/2000/svg">
</g>
<g xmlns="http://www.w3.org/2000/svg">
</g>
<g xmlns="http://www.w3.org/2000/svg">
</g>
<g xmlns="http://www.w3.org/2000/svg">
</g>
<g xmlns="http://www.w3.org/2000/svg">
</g>
<g xmlns="http://www.w3.org/2000/svg">
</g>
<g xmlns="http://www.w3.org/2000/svg">
</g>
<g xmlns="http://www.w3.org/2000/svg">
</g>
<g xmlns="http://www.w3.org/2000/svg">
</g>
<g xmlns="http://www.w3.org/2000/svg">
</g>
<g xmlns="http://www.w3.org/2000/svg">
</g>
<g xmlns="http://www.w3.org/2000/svg">
</g>
</g></svg>
