<svg id="Capa_1" enable-background="new 0 0 512 512" height="512" viewBox="0 0 512 512" width="512" xmlns="http://www.w3.org/2000/svg"><g><path d="m502.749 146.393-241-100c-3.681-1.527-7.817-1.527-11.498 0l-241 100c-5.601 2.324-9.251 7.791-9.251 13.854v324.804c0 8.284 6.716 15 15 15h482c8.284 0 15-6.716 15-15v-324.804c0-6.063-3.65-11.53-9.251-13.854z" fill="#293f65"/><path d="m497 500.051c8.284 0 15-6.716 15-15v-324.804c0-6.063-3.65-11.53-9.251-13.854l-241-100c-1.84-.764-3.795-1.146-5.749-1.146v454.804z" fill="#152133"/><path d="m419.747 11.949h-327.494c-8.284 0-15 6.716-15 15v332c0 8.284 6.716 15 15 15h327.494c8.284 0 15-6.716 15-15v-332c0-8.284-6.716-15-15-15z" fill="#fff5f5"/><path d="m419.747 11.949h-163.747v362h163.747c8.284 0 15-6.716 15-15v-332c0-8.284-6.716-15-15-15z" fill="#ece6f2"/><path d="m330.282 133.843h-148.564c-8.284 0-15-6.716-15-15s6.716-15 15-15h148.564c8.284 0 15 6.716 15 15s-6.716 15-15 15z" fill="#293f65"/><path d="m330.282 205.396h-148.564c-8.284 0-15-6.716-15-15s6.716-15 15-15h148.564c8.284 0 15 6.716 15 15s-6.716 15-15 15z" fill="#293f65"/><path d="m257.061 379.237-257.061-218.99v324.804c0 5.003 2.494 9.676 6.65 12.461 2.507 1.68 5.419 2.539 8.351 2.539 1.929 0 3.866-.372 5.702-1.127l231.497-95.164c4.65-1.911 8.033-6.025 9.011-10.957s-.581-10.025-4.15-13.566z" fill="#ece6f2"/><path d="m254.939 379.237c-3.569 3.541-5.127 8.634-4.15 13.565s4.361 9.046 9.011 10.957l231.497 95.164c1.836.755 3.773 1.127 5.702 1.127 2.932 0 5.845-.859 8.351-2.539 4.156-2.785 6.65-7.458 6.65-12.461v-324.803z" fill="#cfcfe6"/><path d="m265.696 269.424c-5.595-4.74-13.798-4.74-19.393 0l-231.303 230.627h482z" fill="#cfcfe6"/><path d="m497 500.051-231.304-230.627c-2.797-2.37-6.247-3.555-9.696-3.555v234.182z" fill="#a3aacc"/><g fill="#152133"><path d="m330.282 175.396h-74.282v30h74.282c8.284 0 15-6.716 15-15s-6.716-15-15-15z"/><path d="m330.282 103.843h-74.282v30h74.282c8.284 0 15-6.716 15-15s-6.716-15-15-15z"/></g></g></svg>