<svg xmlns="http://www.w3.org/2000/svg" width="261.233" height="260" viewBox="0 0 261.233 260">
  <g>
    <path fill="rgb(34,22,56)" fill-rule="evenodd" d="M169.42653568 59.461448h-1.26231103V21.7983892c.00000754-5.7812834-2.10863205-11.32578351-5.86204166-15.41377241-3.75340961-4.0879889-8.84412916-6.38459947-14.15225739-6.38460311H74.88617045C69.57804219 0 64.48731615 2.29659326 60.73389438 6.38456897c-3.75342178 4.0879757-5.86207839 9.63246802-5.86208927 15.41375147v206.62254192c-.00000697 12.0388974 8.9606993 21.79836033 20.0143022 21.79837553h73.2637236c11.05359868.00002468 20.0143322-9.7594002 20.01436533-21.79829302V86.2706576h1.26232997l.00000947-26.8092096z"/>
    <path fill="rgb(255,255,255)" fill-rule="evenodd" d="M148.95743242 5.67119475h-9.56334497c.8930873 2.3847565.63762072 5.09724656-.68139116 7.23486694-1.31901188 2.13762037-3.52848509 3.4198673-5.89319938 3.42006264H90.84765048c-2.36471884-.00019007-4.5741978-1.2824381-5.89321105-3.42006344-1.31901324-2.13762535-1.57447561-4.85012195-.68137948-7.2348799H75.3408768c-8.25470492-.0000057-14.94647162 7.28823538-14.94648383 16.27874703v206.31936114c-.00000334 4.3173988 1.5747073 8.45796955 4.37771337 11.51083346 2.80300608 3.0528639 6.6046998 4.76794613 10.56875152 4.76794795h73.61657456c3.96405172.00000365 7.76574744-1.71507332 10.56875707-4.76793337 2.80300963-3.05286004 4.37772508-7.1934286 4.37772676-11.51082741V21.94994522c-.00000168-4.31739786-1.57471743-8.45796537-4.37772733-11.51082378-2.8030099-3.0528584-6.60470565-4.76793308-10.5687565-4.7679267z"/>
    <path fill="rgb(63,61,86)" fill-rule="evenodd" d="M98.02990091 258.50028967h-.94702211l1.89404422-137.8688309h.94702212l-1.89404423 137.8688309z"/>
    <path fill="rgb(63,61,86)" fill-rule="evenodd" d="M123.915172 258.50028967h-.94702211l-1.89404423-137.8688309h.94702212l1.89404422 137.8688309z"/>
    <rect width="22.097" height="1.031" x="99.293" y="123.382" fill="rgb(63,61,86)" rx="0" ry="0"/>
    <rect width="22.097" height="1.031" x="99.293" y="141.26" fill="rgb(63,61,86)" rx="0" ry="0"/>
    <rect width="23.044" height="1.031" x="98.977" y="159.138" fill="rgb(63,61,86)" rx="0" ry="0"/>
    <rect width="23.36" height="1.031" x="98.977" y="177.017" fill="rgb(63,61,86)" rx="0" ry="0"/>
    <rect width="23.991" height="1.031" x="98.661" y="194.895" fill="rgb(63,61,86)" rx="0" ry="0"/>
    <rect width="24.307" height="1.031" x="98.346" y="212.773" fill="rgb(63,61,86)" rx="0" ry="0"/>
    <rect width="24.938" height="1.031" x="98.03" y="230.651" fill="rgb(63,61,86)" rx="0" ry="0"/>
    <rect width="25.885" height="1.031" x="97.399" y="248.53" fill="rgb(63,61,86)" rx="0" ry="0"/>
    <ellipse cx="109.289" cy="173.356" fill="rgb(47,46,65)" rx="13.262" ry="14.444"/>
    <rect width="4.029" height="7.862" x="113.736" y="183.668" fill="rgb(47,46,65)" rx="0" ry="0" transform="rotate(-10.260804 115.75040538 187.59861836)"/>
    <rect width="4.029" height="7.862" x="105.807" y="185.231" fill="rgb(47,46,65)" rx="0" ry="0" transform="rotate(-10.260804 107.8212888 189.16189592)"/>
    <ellipse cx="107.773" cy="194.002" fill="rgb(47,46,65)" rx="3.358" ry="1.371" transform="rotate(-40.261074 107.7731371 194.00172927)"/>
    <ellipse cx="115.537" cy="192.471" fill="rgb(47,46,65)" rx="3.358" ry="1.371" transform="rotate(-40.261074 115.5370165 192.4707625)"/>
    <ellipse cx="108.361" cy="169.823" fill="rgb(255,255,255)" rx="4.533" ry="4.937"/>
    <ellipse cx="106.498" cy="168.054" fill="rgb(63,61,86)" rx="1.511" ry="1.645"/>
    <path fill="rgb(108,99,255)" fill-rule="evenodd" d="M119.75119469 157.64235675c.19943339-5.34751938-4.03214552-9.8769093-9.45153323-10.1166601-5.4193877-.2397508-9.97432731 3.90089715-10.17377333 9.24841996-.19944601 5.34752281 3.56771957 6.56250822 8.9870978 6.80227965 5.41937824.23977143 10.43877222-.58652014 10.63820876-5.93403951z"/>
    <ellipse cx="97.043" cy="170.725" fill="rgb(47,46,65)" rx="2.082" ry="7.222" transform="rotate(-77.089928 97.04345057 170.72483051)"/>
    <ellipse cx="123.077" cy="175.44" fill="rgb(47,46,65)" rx="2.082" ry="7.222" transform="rotate(-77.089928 123.07653894 175.43987725)"/>
    <path fill="rgb(255,255,255)" fill-rule="evenodd" d="M112.9316411 179.04863126c.19421956 1.15720089-.19343287 2.3393143-1.0168083 3.10067121-.82337545.76135691-1.95725676.98617183-2.97415892.5896872-1.01690217-.39648463-1.76217693-1.35397229-1.95484798-2.5114802l-.0010575-.00636054c-.29728603-1.78856443.97239598-2.42147176 2.61458915-2.74525378 1.64219317-.32378203 3.03501015-.21582145 3.33228355 1.5727361z"/>
    <path fill="rgb(230,230,230)" fill-rule="evenodd" d="M70.12593603 96.04138184l84.89187622-8.28649903c.86773681-.08581543 1.50793457-.92037964 1.43118286-1.86566162l-1.88729859-22.93511963c-.07879638-.94503784-.84506225-1.64233398-1.71295166-1.55874634L67.9568534 69.68188477c-.86772156.08581543-1.50793458.92037963-1.43118287 1.86566162l1.88731385 22.9350891c.07878112.94506837.84506225 1.64236451 1.71295166 1.55874635zm-2.97143555-24.5552063c-.0460968-.5671692.33805847-1.06796265.85870361-1.11938477l84.89187622-8.28652954c.52075196-.05020142.9805603.36819458 1.027771.9352417l1.8873291 22.93511963c.04608154.5671997-.33807373 1.06796265-.85870361 1.11941528l-84.89189148 8.28649903c-.52076721.05020141-.98054505-.36819458-1.02778626-.9352417l-1.88729858-22.93511963z"/>
    <ellipse cx="80.046" cy="81.788" fill="rgb(63,61,86)" rx="6.629" ry="7.22"/>
    <path fill="rgb(230,230,230)" fill-rule="evenodd" d="M94.90044108 75.50472126c-.60776129.05932497-1.05629278.64402237-1.00182312 1.3059582.05446966.66193584.59131391 1.15044847 1.1990752 1.0911235l51.87827858-5.0639703c.6077613-.05932496 1.05629278-.64402236 1.00182312-1.3059582-.05446965-.66193583-.5913139-1.15044846-1.1990752-1.0911235l-51.87827858 5.0639703z"/>
    <path fill="rgb(230,230,230)" fill-rule="evenodd" d="M95.49219732 82.69596292c-.39432538.03678024-.74046925.30046704-.907441.69127387-.16697175.39080682-.12926465.84903375.09885186 1.20127478.22811651.35224103.6117952.54468757 1.00584122.50451242l51.87828173-5.0639703c.60724157-.05998983 1.05507052-.64440944 1.00064123-1.30584314-.05442928-.66143369-.59053823-1.1498072-1.19789646-1.09123512l-51.87827858 5.06398749z"/>
    <ellipse cx="122.04" cy="92.312" fill="rgb(47,46,65)" rx="6.798" ry="2.324" transform="rotate(-69.082195 122.03979708 92.31156196)"/>
    <ellipse cx="109.474" cy="103.493" fill="rgb(47,46,65)" rx="13.595" ry="14.807" transform="rotate(-80.782549 109.47374984 103.49297558)"/>
    <rect width="4.13" height="8.06" x="103.278" y="115.114" fill="rgb(47,46,65)" rx="0" ry="0"/>
    <rect width="4.13" height="8.06" x="111.539" y="115.114" fill="rgb(47,46,65)" rx="0" ry="0"/>
    <ellipse cx="106.72" cy="123.267" fill="rgb(47,46,65)" rx="3.442" ry="1.406"/>
    <ellipse cx="114.981" cy="123.079" fill="rgb(47,46,65)" rx="3.442" ry="1.406"/>
    <path fill="rgb(108,99,255)" fill-rule="evenodd" d="M96.28581132 89.72274184c-1.09775015-5.35446438 2.4113298-10.76492552 7.83774757-12.08460872 5.42641777-1.3196832 10.71530899 1.9511637 11.81305598 7.30562809 1.097747 5.35446439-2.4985316 7.32927552-7.92494936 8.6489484-5.42641777 1.31967289-10.62810403 1.48450694-11.72585419-3.86996777z"/>
    <ellipse cx="94.161" cy="96.622" fill="rgb(47,46,65)" rx="2.134" ry="7.404" transform="rotate(-64.625763 94.160807 96.62231364)"/>
    <ellipse cx="27.563" cy="238.82" fill="rgb(0,141,234)" rx="13.595" ry="14.807"/>
    <rect width="4.13" height="8.06" x="21.368" y="250.441" fill="rgb(47,46,65)" rx="0" ry="0"/>
    <rect width="4.13" height="8.06" x="29.628" y="250.441" fill="rgb(47,46,65)" rx="0" ry="0"/>
    <ellipse cx="24.81" cy="258.594" fill="rgb(47,46,65)" rx="3.442" ry="1.406"/>
    <ellipse cx="33.07" cy="258.407" fill="rgb(47,46,65)" rx="3.442" ry="1.406"/>
    <ellipse cx="27.907" cy="235.072" fill="rgb(255,255,255)" rx="4.646" ry="5.061"/>
    <ellipse cx="27.907" cy="235.072" fill="rgb(63,61,86)" rx="1.549" ry="1.687"/>
    <path fill="rgb(34,22,56)" fill-rule="evenodd" d="M14.37533706 225.04994881c-1.09775016-5.35446782 2.41132348-10.76491865 7.8377602-12.08459841 5.4264367-1.31967976 10.71530582 1.95117402 11.81305597 7.30564184 1.09775015 5.35446783-2.49853475 7.32928584-7.92495252 8.6489484-5.42641777 1.31966258-10.62809772 1.48449319-11.72586365-3.86999183z"/>
    <ellipse cx="35.483" cy="185.092" fill="rgb(47,46,65)" rx="6.798" ry="2.324" transform="rotate(-69.082195 35.48286566 185.09173457)"/>
    <ellipse cx="22.917" cy="196.273" fill="rgb(108,99,255)" rx="13.595" ry="14.807" transform="rotate(-80.782549 22.91679333 196.27315338)"/>
    <rect width="4.13" height="8.06" x="16.721" y="207.894" fill="rgb(47,46,65)" rx="0" ry="0"/>
    <rect width="4.13" height="8.06" x="24.982" y="207.894" fill="rgb(47,46,65)" rx="0" ry="0"/>
    <ellipse cx="20.163" cy="216.047" fill="rgb(47,46,65)" rx="3.442" ry="1.406"/>
    <ellipse cx="28.424" cy="215.86" fill="rgb(47,46,65)" rx="3.442" ry="1.406"/>
    <ellipse cx="23.261" cy="192.524" fill="rgb(255,255,255)" rx="4.646" ry="5.061"/>
    <ellipse cx="23.261" cy="192.524" fill="rgb(63,61,86)" rx="1.549" ry="1.687"/>
    <path fill="rgb(34,22,56)" fill-rule="evenodd" d="M9.72887407 182.5029881c-1.09775015-5.35446438 2.4113298-10.76492552 7.83774757-12.08460872 5.42641777-1.3196832 10.71530899 1.9511637 11.81305598 7.30562809 1.097747 5.35446439-2.4985316 7.32927552-7.92495252 8.6489484-5.42642092 1.31967289-10.62810087 1.48450694-11.72585103-3.86996776z"/>
    <ellipse cx="7.604" cy="189.402" fill="rgb(47,46,65)" rx="2.134" ry="7.404" transform="rotate(-64.625763 7.60387561 189.40248854)"/>
    <path fill="rgb(255,255,255)" fill-rule="evenodd" d="M16.23876406 201.61496024c0 1.44922145 3.42609556 4.31091767 7.22784639 4.31091767 3.80175082 0 7.36629786-4.08002348 7.36629786-5.5292243 0-1.44920083-3.56456914.2811527-7.36629786.2811527-3.80172873 0-7.2278464-.51206752-7.2278464.93715393z"/>
    <ellipse cx="79.377" cy="195.791" fill="rgb(47,46,65)" rx="6.798" ry="2.324" transform="rotate(-69.082195 79.37653549 195.79077355)"/>
    <ellipse cx="69.651" cy="210.067" fill="rgb(0,141,234)" rx="13.595" ry="14.807" transform="rotate(-80.782549 69.65145257 210.0668614)"/>
    <path fill="rgb(47,46,65)" fill-rule="evenodd" d="M63.45633328 221.68759276h4.12996344l-.80812554 9.65150579-3.3218379-1.5921959v-8.05930989z"/>
    <ellipse cx="65.32" cy="230.872" fill="rgb(47,46,65)" rx="1.291" ry="3.749" transform="rotate(-28.23233 65.31965035 230.87214178)"/>
    <path fill="rgb(47,46,65)" fill-rule="evenodd" d="M72.46030386 221.71234727h4.1302791l-.80812553 9.6518496-3.32215357-1.5921959v-8.0596537z"/>
    <ellipse cx="74.324" cy="230.897" fill="rgb(47,46,65)" rx="1.291" ry="3.749" transform="rotate(-28.23233 74.32394126 230.89720212)"/>
    <ellipse cx="69.996" cy="206.318" fill="rgb(255,255,255)" rx="4.646" ry="5.061"/>
    <ellipse cx="69.996" cy="206.318" fill="rgb(63,61,86)" rx="1.549" ry="1.687"/>
    <path fill="rgb(34,22,56)" fill-rule="evenodd" d="M56.46365458 196.29651022c-1.09775015-5.3544644 2.4113298-10.76492897 7.83775073-12.08461217 5.42642092-1.3196832 10.71530582 1.9511637 11.81305598 7.30563153 1.09775015 5.35446783-2.49853476 7.32927552-7.92495253 8.6489484-5.42641776 1.31967289-10.62810403 1.48450694-11.72585418-3.86996776z"/>
    <ellipse cx="55.286" cy="199.758" fill="rgb(47,46,65)" rx="2.134" ry="7.404" transform="rotate(-36.450113 55.28572944 199.7581679)"/>
    <path fill="rgb(255,255,255)" fill-rule="evenodd" d="M76.28469482 217.70158482c0-1.19440478-2.82370426-3.55295885-5.95702163-3.55295885-3.13331736 0-6.07113148 3.36266204-6.07113148 4.55705651 0 1.19439447 2.93783622-.23172965 6.07113148-.23172965 3.13329527 0 5.95702163.42204709 5.95702163-.772368z"/>
    <path fill="rgb(34,22,56)" fill-rule="evenodd" d="M40.83398962 188.1074524c5.62475586 6.12612914 13.2545166 9.56610107 21.20910644 9.56243896 4.62043762.01391601 9.18014526-1.14620972 13.31672669-3.38809204 12.47990417-6.73764038 19.05867004-21.94610596 15.88278198-36.71710205-3.1758728-14.7709961-15.27052307-25.21688843-29.19950867-25.21902466-16.44186401 0-29.89346313 14.56652832-29.98532104 32.45352173-.0035553.06832885-.00370789.14035034-.00370789.2086792-.00332642 8.66363525 3.15516663 16.97348022 8.77992249 23.09957885zm-8.14532471-23.28674317c.12852478-17.56900025 13.22286987-31.74862671 29.35444641-31.78738403 8.47554016-.00262452 16.53839111 3.98519897 22.11410522 10.93746948 5.57572937 6.9522705 8.1199646 16.19021606 6.97814942 25.33709717-2.07345581 16.6737976-15.6568451 28.74450683-31.07067871 27.61056518-15.41381836-1.13397217-27.38342285-15.08453369-27.37927246-31.9105835v-.00686645c0-.05352783-.00001526-.11026001.00325012-.18029785z"/>
    <ellipse cx="73.092" cy="257.125" fill="rgb(230,230,230)" rx="16.731" ry=".688"/>
    <ellipse cx="244.503" cy="250.593" fill="rgb(230,230,230)" rx="16.731" ry=".688"/>
    <path fill="rgb(34,22,56)" fill-rule="evenodd" d="M169.39790868 205.96331787l75.02471924 44.05029297c.76742554.44934082 1.72399902.1373291 2.13833618-.69744873l10.03271485-20.26928711c.41253662-.83584595.12609863-1.87765503-.64038086-2.32894897l-75.02471924-44.0503235c-.76742554-.4493103-1.7239685-.1373291-2.13833618.69744874l-10.03271485 20.26931763c-.41253662.83584594-.12606811 1.87765503.64038086 2.32894897zm9.94805909-22.27194214c.24859619-.50091552.8225708-.68811035 1.28302001-.41845703l75.02471924 44.05029297c.4598999.27075195.6317749.89587402.38421631 1.39736938L246.0052085 248.9899292c-.24856568.50091553-.82254029.68811035-1.2829895.41845703l-75.02471924-44.05032349c-.45993042-.27075195-.63180542-.89587402-.38421631-1.39736938l10.03268433-20.26931763z"/>
    <ellipse cx="184.889" cy="200.026" fill="rgb(108,99,255)" rx="6.629" ry="7.22"/>
    <path fill="rgb(230,230,230)" fill-rule="evenodd" d="M200.46246748 203.70141074c-.34747415-.20422283-.76860036-.1909685-1.10466657.03476778-.33606621.22573627-.53598607.62963968-.52441472 1.05948903.01157135.42984934.2328749.82030202.58050684 1.02420608l45.84836465 26.91958717c.34747415.20422284.76860036.1909685 1.10466658-.03476777.33606621-.22573628.53598607-.62963969.52441472-1.05948903-.01157135-.42984935-.23287491-.82030203-.58050685-1.02420609l-45.84836465-26.91958717z"/>
    <path fill="rgb(230,230,230)" fill-rule="evenodd" d="M197.31674413 210.0567994c-.3474555-.2040068-.76844652-.19062847-1.1043898.03509548-.33594327.22572395-.53580104.6295007-.5242888 1.05923144.01151223.42973075.23264547.82012918.58010098 1.02413597l45.84836466 26.91958718c.53711968.31536716 1.2072733.0967887 1.49683-.48820867.2895567-.58499738.08886727-1.31488705-.4482524-1.63025423l-45.84836464-26.91958716z"/>
    <path fill="rgb(108,99,255)" fill-rule="evenodd" d="M75.62422898 166.58907088L55.0983328 153.68209693c-.19533973-.12283237-.4360082-.1228324-.63134796-7e-8-.19533976.12283232-.31567406.34983585-.31567415.59550059v25.81394447c-.00000104.24566535.12033281.47267.31567278.59550317.19533996.12283316.4360091.12283346.63134933 7.9e-7l20.52589618-12.90697396c.19533952-.12283246.3156736-.34983593.3156736-.59550052 0-.24566458-.12033408-.47266805-.3156736-.59550052L55.0983328 153.68209693c-.19533973-.12283237-.4360082-.1228324-.63134796-7e-8-.19533976.12283232-.31567406.34983585-.31567415.59550059v25.81394447c-.00000104.24566535.12033281.47267.31567278.59550317.19533996.12283316.4360091.12283346.63134933 7.9e-7l20.52589618-12.90697396c.19533952-.12283246.3156736-.34983593.3156736-.59550052 0-.24566458-.12033408-.47266805-.3156736-.59550052z"/>
  </g>
</svg>
